<?xml version="1.0" standalone="no"?>
<!DOCTYPE svg PUBLIC "-//W3C//DTD SVG 20010904//EN"
 "http://www.w3.org/TR/2001/REC-SVG-20010904/DTD/svg10.dtd">
<svg version="1.0" xmlns="http://www.w3.org/2000/svg"
 width="178.000000pt" height="71.000000pt" viewBox="0 0 178.000000 71.000000"
 preserveAspectRatio="xMidYMid meet">

<g transform="translate(0.000000,71.000000) scale(0.100000,-0.100000)"
fill="#000000" stroke="none">
<path d="M300 375 c0 -131 2 -155 15 -155 11 0 15 11 15 43 0 38 5 48 48 90
26 26 53 47 58 47 6 0 32 -23 58 -50 43 -46 47 -54 44 -93 l-3 -42 -242 -3
-243 -2 0 35 0 35 109 0 c151 0 155 7 63 102 l-71 73 -65 -70 -65 -70 -1 -67
0 -68 275 0 275 0 0 68 0 68 -70 69 -69 69 -41 -47 c-23 -26 -46 -47 -51 -47
-5 0 -9 38 -9 85 0 69 -3 85 -15 85 -13 0 -15 -24 -15 -155z m-108 -12 c21
-20 38 -41 38 -45 0 -4 -34 -8 -75 -8 -52 0 -75 4 -75 12 0 12 59 78 69 78 3
0 22 -17 43 -37z"/>
<path d="M1250 315 l0 -115 27 -11 c81 -31 159 65 106 130 -23 28 -76 33 -81
9 -2 -12 3 -18 15 -18 25 0 43 -19 43 -45 0 -27 -18 -45 -47 -45 -23 0 -23 2
-23 105 0 98 -1 105 -20 105 -19 0 -20 -7 -20 -115z"/>
<path d="M662 325 c-59 -50 -31 -131 48 -137 26 -2 35 1 38 15 2 12 -3 17 -18
17 -34 0 -60 19 -60 43 0 29 18 47 47 47 32 0 29 -18 -4 -22 -14 -2 -28 -9
-31 -15 -3 -9 12 -13 52 -13 48 0 56 3 56 19 0 28 -31 60 -66 67 -24 4 -37 0
-62 -21z"/>
<path d="M810 280 c0 -63 2 -71 25 -86 17 -11 35 -14 57 -10 51 10 58 22 58
97 0 62 -2 69 -20 69 -16 0 -19 -8 -22 -62 -3 -60 -4 -63 -28 -63 -24 0 -25 3
-28 63 -3 54 -6 62 -22 62 -18 0 -20 -7 -20 -70z"/>
<path d="M990 330 c-16 -16 -20 -33 -20 -85 0 -63 1 -65 25 -65 24 0 25 3 25
60 0 45 4 62 15 66 8 4 15 15 15 25 0 25 -34 25 -60 -1z"/>
<path d="M1089 321 c-38 -39 -38 -74 1 -113 26 -25 36 -29 63 -24 73 15 97 96
43 142 -37 32 -71 30 -107 -5z m89 -23 c28 -28 7 -78 -33 -78 -27 0 -45 18
-45 45 0 27 18 45 45 45 12 0 26 -5 33 -12z"/>
<path d="M1443 340 c-21 -9 -23 -16 -23 -85 0 -68 2 -75 20 -75 18 0 20 7 20
61 0 52 3 62 20 66 25 7 27 43 3 42 -10 0 -28 -4 -40 -9z"/>
<path d="M1543 343 c-26 -10 -13 -33 17 -33 28 0 30 -2 30 -39 0 -44 -10 -55
-40 -46 -29 9 -25 35 6 35 19 0 25 4 22 18 -3 12 -12 16 -32 15 -36 -3 -56
-20 -56 -49 0 -39 26 -55 84 -52 l51 3 3 65 c2 52 0 67 -14 77 -18 13 -48 16
-71 6z"/>
<path d="M1676 334 c-23 -23 -20 -36 16 -66 28 -23 31 -29 18 -38 -8 -5 -25
-10 -37 -10 -14 0 -23 -6 -23 -15 0 -21 73 -20 94 1 27 27 20 61 -16 80 -32
17 -33 17 -10 27 12 6 22 16 22 24 0 18 -45 17 -64 -3z"/>
</g>
</svg>
