<?xml version="1.0" encoding="utf-8"?>
<!-- Generator: Adobe Illustrator 22.1.0, SVG Export Plug-In . SVG Version: 6.00 Build 0)  -->
<svg version="1.1" id="Layer_1" xmlns="http://www.w3.org/2000/svg" xmlns:xlink="http://www.w3.org/1999/xlink" x="0px" y="0px"
	 viewBox="0 0 270 69" style="enable-background:new 0 0 270 69;" xml:space="preserve">
<style type="text/css">
	.st0{fill:#006934;}
	.st1{fill:#00A453;}
	.st2{fill:#E95A26;}
	.st3{fill:#F08E2A;}
	.st4{fill:#FCCB2B;}
	.st5{fill:#F6AE2B;}
</style>
<g>
	<g>
		<path class="st0" d="M133.9,53.4V39.7c0-2.3-1.5-3.6-3.9-3.6c-1.6,0-2.9,0.5-3.7,1.3v16h-4.1V39.3c0-2-1.6-3.3-4.1-3.3
			c-1.4,0-2.6,0.2-3.4,0.6v16.7h-4.1V34.2c2-0.8,4.5-1.4,7.3-1.4c3.2,0,5.3,1,6.4,2.2c1.3-1.1,3.7-2.2,6.7-2.2c4.3,0,7,2.5,7,6.5
			v14.1H133.9z"/>
		<path class="st0" d="M150.7,53.8c-5.8,0-8.7-2.4-8.7-6.3c0-5.6,6-6.6,12.1-7v-1.3c0-2.5-1.7-3.4-4.3-3.4c-1.9,0-4.2,0.6-5.6,1.2
			l-1-2.8c1.6-0.7,4.3-1.4,7-1.4c4.8,0,7.8,1.9,7.8,6.9v12.7C156.5,53.2,153.6,53.8,150.7,53.8z M154.1,43.2
			c-4.1,0.2-8.2,0.6-8.2,4.2c0,2.1,1.6,3.4,4.8,3.4c1.3,0,2.8-0.2,3.5-0.5V43.2z"/>
		<path class="st0" d="M172.4,36.3c-0.6-0.1-1.3-0.2-2.1-0.2c-1.2,0-2.4,0.2-3.2,0.5v16.8H163V34.2c1.9-0.8,4.8-1.4,7.8-1.4
			c0.9,0,1.7,0,2.3,0.2L172.4,36.3z"/>
		<path class="st0" d="M178.8,29.5c-1.3,0-2.4-1-2.4-2.3c0-1.3,1.1-2.3,2.4-2.3c1.4,0,2.4,1,2.4,2.3
			C181.2,28.5,180.1,29.5,178.8,29.5z M176.7,53.4V33.2h4.1v20.2H176.7z"/>
		<path class="st0" d="M186.9,53.4V24h4.1v29.4H186.9z"/>
		<path class="st0" d="M212.8,43.2l-13.4,1.9c0.4,3.6,2.8,5.5,6.2,5.5c2,0,4.2-0.5,5.6-1.2l1.2,3.1c-1.6,0.8-4.3,1.4-7,1.4
			c-6.4,0-9.9-4.1-9.9-10.5c0-6.2,3.4-10.5,9.1-10.5c5.2,0,8.4,3.4,8.4,8.9C212.8,42.2,212.8,42.7,212.8,43.2z M204.4,35.8
			c-3.1,0-5.2,2.4-5.3,6.6l9.8-1.3C208.9,37.5,207.1,35.8,204.4,35.8z"/>
		<path class="st0" d="M224.5,53.8c-5.3,0-8.2-2.2-8.2-7.3V33.2h4.1v13.4c0,2.6,1.4,3.8,4.1,3.8c1.6,0,2.9-0.3,3.6-0.6V33.2h4.1
			v19.2C230.5,53.2,227.6,53.8,224.5,53.8z"/>
		<path class="st0" d="M242.4,53.8c-2.4,0-4.8-0.6-6.3-1.4l1.4-3.1c1,0.6,3.3,1.3,4.8,1.3c2.2,0,3.7-1.1,3.7-2.8
			c0-1.8-1.5-2.5-3.6-3.3c-2.7-1-5.7-2.2-5.7-6c0-3.3,2.6-5.7,7.1-5.7c2.4,0,4.5,0.6,5.9,1.4l-1.3,2.8c-0.9-0.6-2.7-1.2-4.2-1.2
			c-2.1,0-3.3,1.1-3.3,2.6c0,1.8,1.5,2.5,3.5,3.2c2.8,1,5.9,2.2,5.9,6.1C250.2,51.4,247.4,53.8,242.4,53.8z"/>
		<path class="st0" d="M261.8,53.8c-5.8,0-8.7-2.4-8.7-6.3c0-5.6,6-6.6,12.1-7v-1.3c0-2.5-1.7-3.4-4.3-3.4c-1.9,0-4.2,0.6-5.6,1.2
			l-1-2.8c1.6-0.7,4.3-1.4,7-1.4c4.8,0,7.8,1.9,7.8,6.9v12.7C267.6,53.2,264.6,53.8,261.8,53.8z M265.1,43.2
			c-4.1,0.2-8.2,0.6-8.2,4.2c0,2.1,1.6,3.4,4.8,3.4c1.3,0,2.8-0.2,3.5-0.5V43.2z"/>
	</g>
	<g>
		<path class="st1" d="M129.8,20.6c-1.8,0-3.1-1.3-3.1-3.5s1.3-3.5,3.2-3.5c0.7,0,1.3,0.2,1.7,0.4l-0.4,0.8
			c-0.3-0.2-0.7-0.3-1.3-0.3c-1.2,0-2.1,0.8-2.1,2.6c0,1.8,0.9,2.6,1.9,2.6c0.4,0,0.8-0.1,0.9-0.1v-2.2h-1.3v-0.8h2.3v3.7
			C131.3,20.4,130.7,20.6,129.8,20.6z"/>
		<path class="st1" d="M155.7,20.5l-1-2.2c-0.2-0.5-0.5-0.7-1.1-0.7h-0.6v2.9H152v-6.6c0.5-0.2,1.2-0.4,2-0.4c1.7,0,2.5,0.8,2.5,2
			c0,1-0.7,1.6-1.5,1.7v0c0.4,0.2,0.6,0.5,0.8,1l1,2.2H155.7z M154,14.3c-0.3,0-0.7,0.1-0.9,0.1v2.3h0.8c1,0,1.5-0.4,1.5-1.2
			C155.4,14.8,155,14.3,154,14.3z"/>
		<path class="st1" d="M181.1,20.5l-0.6-1.8H178l-0.6,1.8h-1.1l2.4-6.9h1.3l2.4,6.9H181.1z M179.4,15.3c-0.1-0.4-0.2-0.8-0.2-0.8h0
			c0,0-0.1,0.4-0.2,0.8l-0.8,2.6h2.1L179.4,15.3z"/>
		<path class="st1" d="M206.2,20.5l-2.8-4.6c-0.2-0.4-0.4-0.8-0.4-0.8h0c0,0,0,0.4,0,0.9v4.5H202v-6.9h1l2.8,4.5
			c0.2,0.4,0.4,0.8,0.4,0.8h0c0,0,0-0.5,0-0.9v-4.4h0.9v6.9H206.2z"/>
		<path class="st1" d="M226.2,22.5v-0.9c0.8-0.2,1.3-0.8,1.3-1.9v-6.1h1.1v6.1C228.5,21.4,227.6,22.3,226.2,22.5z"/>
		<path class="st1" d="M253.2,20.5l-0.6-1.8h-2.5l-0.6,1.8h-1.1l2.4-6.9h1.3l2.4,6.9H253.2z M251.6,15.3c-0.1-0.4-0.2-0.8-0.2-0.8h0
			c0,0-0.1,0.4-0.2,0.8l-0.8,2.6h2.1L251.6,15.3z"/>
	</g>
</g>
<g>
	<path class="st2" d="M28.1,7.6c0.4-0.5,0.7-0.9,1.1-1.4c0.4,0.3,1.4-0.3,2.2-0.8c-0.3,0.2-0.6,0.3-1,0.5c0.2-0.2-0.1-0.4,0.1-0.6
		c0.8-0.3,1.3-0.6,1.7-0.9C32.7,4.2,33.2,4,34,4L34,4.1c0.3-0.2,0.7-0.5,1.1-0.7c0.4-0.1,0.3,0.2,0.2,0.3c1-0.6,1.7-1.1,3.2-1.4
		C37.8,2,37,2.4,36.3,2.8c-0.8,0.4-1.5,0.8-2.2,0.6l0.1-0.1c-0.6,0.4-1.4,0.6-2.2,0.9c-0.8,0.3-1.5,0.5-2.1,1
		C29.2,5.9,27.8,7,28.1,7.6z"/>
	<path class="st2" d="M35.3,3.7L35.3,3.7C35.2,3.8,35.2,3.7,35.3,3.7z"/>
	<path class="st2" d="M39.7,1.9C39.4,2,39,2.2,38.7,2.4c0.4-0.1,0.8-0.2,1.2-0.3L39.7,1.9z"/>
	<path class="st2" d="M51.1,1.4c0.1,0,0.2,0,0.3,0C51.3,1.4,51.2,1.4,51.1,1.4z"/>
	<path class="st2" d="M28.4,6c0.2-0.1,0.4-0.3,0.7-0.5C28.8,5.7,28.6,5.8,28.4,6z"/>
	<path class="st2" d="M18.5,53.2l0.2,0C18.5,53.1,18.4,53.1,18.5,53.2z"/>
	<path class="st2" d="M77.8,31.2c-0.3-1.9-0.8-3.8-1-5.7c-0.3-1-0.5,0.5-0.8-0.8c0.2-0.5,0.8,0.5,0.6-0.4c-0.5-0.5-0.5-0.7-0.8-1.5
		c0.2,0.1,0.3-0.1,0.6,0.4c0-0.3-0.2-0.7-0.5-1.2c-0.3-0.5-0.6-1.1-0.6-1.6c-0.1,0.1-0.3,0-0.5-0.1c-0.5-0.5-0.8-1.3-1-2
		c-0.2-0.7-0.3-1.2-0.4-1.2c0,0-0.3-0.4-0.2,0c-0.3-0.5-0.6-1.1-0.3-1.2c-0.3-0.1-0.6-0.2-0.9-0.5l0.4,0c-0.2-0.2-0.5-0.3-0.7-0.4
		l0,0.4c-0.1-0.7-1.4-1.2-0.8-1.6l0.1,0.2c-0.2-0.4-0.3-0.7-0.5-1.1c-0.5-0.2-1-0.4-1.4-1c0.3-0.7-1.2-1.5-1.9-2.2l0.2-0.1
		c-0.8-0.3-2.2-1.6-2-1.3c-0.6-0.5-1.3-1.2-0.9-1.1c-0.6-0.3-1.6-1-2.1-0.8c-0.2-0.4-0.5-0.7-0.7-1.1c-0.5,0.2-1-0.2-1.4-0.5
		c-0.4-0.3-0.8-0.6-1-0.2C59,4.1,59.2,4,58.9,3.6c-1,0-1.9-0.4-2.8-0.8l0-0.1c-0.9-0.4-2.1-0.3-3.4-0.6l-0.1-0.7
		c-0.7-0.1-1,0.4-1.6,0.2c-0.1-0.1,0-0.1,0.2-0.1c-0.7,0-1.5-0.3-2-0.5C48,1.3,47.2,1,46.3,1.5c-0.8-0.6,1.2-0.2,0.5-0.8
		c-1.5-0.4-3,0-4.6,0.4c-0.1-0.1,0-0.2,0.1-0.4c0,0-0.8,0.5-1.4,1c-0.6,0.5-1,1.1-0.9,1.4c-8.7,1.5-16,6.4-20.6,13.3
		c0.2-0.6,0.4-1.2,0.8-1.8l0,0.3c0.3-0.4,0.6-0.8,1-1.2l0,0.1c0.2-0.4,0.4-0.8,0.6-1.1l0.1,0.2c0.1-0.3,0.1-0.4,0.3-0.7l0.1,0.3
		c-0.1-0.6,0.8-1.8,1.3-2.3l0.2,0c0.3-0.5,0.6-1,0.9-1.5c0.9-0.3-0.5,1.2,0.8,0l0,0.7c0.8-1,1.2-0.8,1.8-1.5c-0.5,0-1,0.4-0.7-0.1
		c1.2,0,1.2-1,1.9-1.8c-0.4,0.3-0.7,0.4-0.8,0.9c-0.4,0.3-0.3-0.2-0.6,0l-0.4,0.7l-0.4-0.2c-0.3,0.3-0.6,0.7-0.8,1
		c-0.2-0.4-0.9,0.7-0.9,0c-0.6,0.7-1.2,0.8-1.4,1.7c-0.6,0.2,0.5-0.9,0-0.5c-2.4,2.7-4.7,5.5-6.6,8.7l0-0.4c0,0.4-0.1,0.9,0,1.2
		c-0.3,0.2-0.8,0.8-1.2,1.5c-0.4,0.7-0.6,1.5-0.5,2c-0.1,0.1-0.1-0.1-0.1-0.2c-0.2,0.6-0.6,1.4-0.9,2.2c-0.4,0.9-0.7,1.8-0.8,2.7
		c0.3,0.4,0.1,1.1-0.1,1.7c-0.2,0.6-0.3,1.3,0.2,1.7l-0.2-0.4c0.3-0.6,0.6,0.9,0.9,1.2c-0.7,0.4-0.5,0-1.2,0.5l0.3-0.7l-0.6,0.1
		c0.6,1.2,0.4,2.2,0.3,3.1c-0.2,0.9-0.4,1.8,0.2,2.5c-0.1-0.1-0.1,0-0.2-0.1c-0.2,1,0.6,1.5,0.9,2.2c-0.3,0.1-0.5-0.3-0.8-0.7
		c0,0.8,0.3,1.9,0.7,3c0.4,1.1,0.7,2.1,0.8,3c0.6,0.5,0.4-0.4,0.9,0.1c0.1,0.5,0,1-0.5,0.4c-0.1,0.8,0.5,2,1.2,3.2
		c0.7,1.2,1.6,2.4,1.9,3.6c0.5,0.4,0.7,0.4,0.9,0.5c0.2,0.1,0.5,0.3,1.1,0.9c-0.5-0.2-0.4,0.9-1.2,0l-0.3,0.1
		c0.5,0.8,1.2,1.7,1.9,2.4c0.7,0.7,1.5,1.3,2.1,1.3c-0.4,0.5,0.2,0.3,0.5,1.1c0.3,0.2,0-0.1,0-0.2c0.9,0.1,0.8,0.7,1.2,1l-0.2,0
		c0.4,0.2,0.9,0.4,1.3,0.6c0.1,0.2,0.3,0.5,0.3,0.7l0.2-0.3c0.6,0.4,0,0.6,0.8,1.1l0-0.4c0.4,0.5,1.4,0.6,1.2,1.1
		c0,0.1-0.1,0-0.3-0.1c0.2,0.5,0.8,0.8,1.3,1c0.6,0.2,1.2,0.4,1.7,0.8l0.1-0.7c1.1,0.3,0.5,0.4,0.4,0.6c0.7,0.3,0.7,0.6,1.6,1
		c0.5,0,0.3-0.1,0.5-0.3c0.3,0.2,0.6,0.3,0.9,0.5c0,0,1,0.3,1.9,0.6c0.8,0.3,1.6,0.5,2.2,0.2c0.5,0.3-0.6,0.3-0.3,0.5
		c0.8,0.4,1.9,0.5,2.8,0.4c1,0,1.9-0.1,2.6,0.2c1.2,0.3,2.5,0.3,3.9,0.2c1.4-0.1,2.7-0.3,4.1-0.4l-0.1-0.2c0.6-0.1,1.3-0.1,1.9-0.3
		c0.4-0.5,1.7-0.7,2.4-1.4c0,0.2,0.2,0.3,0.1,0.5c0.8-0.3,1.5-0.8,2.1-0.8l-0.2,0.2c0.9-0.3,1.9-0.7,2.8-1.2c0.9-0.5,1.6-1,1.9-1.4
		c0.5-0.4,0.7-0.1,0.9,0c0.9-0.6,1.4-1.1,1.9-1.9c0.2-0.1,0.5-0.2,0.8-0.2l0-0.6c0.4-0.2,0.3,0.2,0.6,0.1c0.5-0.7,1.1-1.3,1.8-1.9
		c0.6-0.5,1.2-1,1.6-1.5l-0.3,0c0.2-0.5,1-1,0.8-0.4c0.9-0.8,1.3-1.6,1.7-2.4c0.4-0.9,0.8-1.8,1.6-3.1c0.5,0,0.8-0.6,1-1.3
		c0.3-0.6,0.5-1.3,1-1.3c0.3-1.3,1-2,0.8-3c0.1,0,0.2-0.1,0.1,0.1c0.5-0.4,0.8-2.1,0.8-3.4l0.3,0c-0.2-0.3-0.2-1-0.2-1.7
		c0-0.7,0-1.4-0.3-1.6c0.1-0.1,0.2,0.3,0.3,0.5c0.6-0.6-0.1-1.2,0.1-2c0.1,0.1,0.3-0.2,0.4,0C78.2,34.9,78.1,33.1,77.8,31.2z
		 M13.4,36.8c0.3-1.1-0.5-0.9-0.1-2.2c0.1,0.3,0.4,0.7,0.6,0.8c0.1-0.4,0.1-0.7,0.1-1c0,0.6,0,1.1,0.1,1.7C14.1,36.1,14.1,36,14,36
		C13.7,36.4,13.9,37.7,13.4,36.8z M14.1,36.7l0.1,0c0,0.3,0.1,0.6,0.1,0.9C14.2,37.4,14.1,37.2,14.1,36.7z M14.4,38.5
		C14.4,38.5,14.4,38.4,14.4,38.5c0.1,0.1,0.1,0.2,0.1,0.4c0.1,0.7,0.3,1.4,0.4,2.1C14.6,40.3,14.4,39.6,14.4,38.5z M14.1,33.3
		c0-0.3,0-0.6-0.1-0.9c-0.1-0.9-0.1-1.9,0.4-3.1c-0.2-1.3,0.1-3,0-4c0.3,0.1,0.5,0.2,0.7,0.4C14.5,28.1,14.1,30.7,14.1,33.3z
		 M15.8,23.7c-0.1-0.4,0-1,0.2-1.7c0.2-0.7,0.3-1.5,0-1.8c0.2,0,0.5-1.1,0.5,0.2c0.3-1.2,1.1-1.4,1.6-1.7
		C17.1,20.3,16.4,21.9,15.8,23.7z M18.3,18.2c-0.2,0-0.5,0-0.2-0.5c0.1-0.1,0.2,0,0.3-0.1l0-0.4c0.3-0.1,0.2,0.3,0.3,0.5
		C18.5,17.9,18.4,18,18.3,18.2z M28.1,60c-0.3-0.2-0.8-0.4-1.1-0.7c0.3,0.1,0.4,0.1,0.5,0c0.3,0.2,0.6,0.4,0.9,0.6
		C28.3,60,28.2,60,28.1,60z M36.1,63.9c-0.2-0.1-0.1-0.2,0-0.3c0.1,0,0.3,0.1,0.4,0.1C36.4,63.7,36.3,63.8,36.1,63.9z"/>
	<path class="st2" d="M14,35.5L14,35.5C14.2,35.7,14.1,35.6,14,35.5z"/>
</g>
<g>
	<path class="st3" d="M23,31.5c-0.4,0.3-0.8,1-1.1,1.8c-0.2,0.8-0.2,1.5-0.3,2.1l0-0.1c0.2,1.4,0.7,2.8,1.2,4
		c0.2,0.4,0.4,0.9,0.4,1.3c0.1,0.4,0,0.8,0.1,0.9c0.1-0.5,0.1-1-0.1-1.4c0.1-0.1,0-0.4-0.1-0.8c-0.1-0.4-0.3-0.8-0.5-1.2
		c0.1,0.3,0.2,0.6,0.4,0.9c-0.1-0.2-0.1,0-0.2-0.3c-0.2-0.7-0.4-1.1-0.6-1.6c-0.2-0.4-0.3-0.9-0.4-1.6l0,0.1
		c-0.1-0.4-0.1-0.8-0.1-1.1c0.1-0.4,0.1-0.2,0.1-0.1c0-0.5,0.1-1,0.3-1.4C22.3,32.5,22.6,32.1,23,31.5z"/>
	<path class="st3" d="M23.7,30.6c-0.2,0.2-0.4,0.5-0.6,0.8c0.2-0.3,0.5-0.6,0.7-0.8L23.7,30.6z"/>
	<path class="st3" d="M31.1,20.8C31.2,20.7,31.1,20.8,31.1,20.8L31.1,20.8z"/>
	<path class="st3" d="M30.8,20C30.8,20,30.7,20,30.8,20c0,0,0,0.1,0.1,0.1c-0.1,0-0.1,0.1,0,0.2c0.2-0.2,0.2,0.3,0.1,0.3
		c0.1,0,0.2,0.1,0.2,0.2C31.2,20.7,31.2,19.9,30.8,20z"/>
	<path class="st3" d="M21.9,34.4L21.9,34.4C21.9,34.5,21.9,34.5,21.9,34.4z"/>
	<path class="st3" d="M31.1,20C31.1,20,31.1,20,31.1,20C31,20,31,20,31.1,20z"/>
	<path class="st3" d="M30.2,19.3C30.2,19.3,30.2,19.3,30.2,19.3C30.2,19.3,30.2,19.3,30.2,19.3z"/>
	<path class="st3" d="M23.1,40.5c0-0.2,0-0.4-0.1-0.6C23.1,40.1,23.1,40.3,23.1,40.5z"/>
	<path class="st3" d="M24.2,47.7L24.2,47.7C24.3,47.5,24.3,47.5,24.2,47.7z"/>
	<path class="st3" d="M26.5,21.8c0.2,0,0.3,0.1,0.1,0.2c0,0,0.1,0,0.1,0c0,0-0.1,0.1-0.1,0.1c0.2,0,0.8,1.1,1,0.9
		c0,0.1,0.2,0.2,0.2,0.2c0.1-0.1,0.2-0.1,0.3-0.2c-0.1,0-0.1,0.1,0,0.2c0,0,0.1-0.1,0.1-0.1c-0.2,0.5,0.8,0.1,0.8,0
		c0,0.1,0,0.1,0,0.2c0-0.1,0-0.1,0.1-0.1c0,0.2,0.6-0.1,0.6-0.1c0,0,0,0.1,0,0.1c0-0.1,0-0.1,0-0.2c0,0,0.1,0,0.1,0
		c0,0,0.2,0.1,0.2,0.1c0-0.2,0.2-0.2,0.3-0.2c0-0.1,0.2-0.3,0.2-0.2c0-0.1,0-0.1,0-0.2c0.2,0,0.3-0.1,0.2-0.2
		c0.3-0.1,0.1-0.2,0.2-0.5c0.1,0,0.1,0,0.2,0.1c0,0-0.1-0.1-0.1-0.2c0.2,0,0.1-0.2,0-0.4c0.1,0,0.1,0.1,0.2,0.1
		c0.2-0.2-0.2-0.4,0.1-0.3c-0.4-0.2-0.6,0-0.7-0.5c-0.1-0.4-0.3-0.8-0.6-1.1c0.1,0,0.3,0.1,0.3,0.1c0,0,0,0-0.1,0
		c0.1-0.1,0.3,0,0.4,0.1c0,0.1-0.2,0.1-0.3,0.2c0,0,0.1,0.1,0.1,0.1c0-0.1,0.1-0.1,0.1-0.1C30.7,20,31,19.9,31,20c0,0-0.1-0.1-0.1,0
		c0,0,0-0.1,0.1-0.1c0,0-0.1,0-0.1,0c0,0,0.1,0,0.1-0.1c0,0-0.1,0-0.1,0c0-0.1,0.1-0.1,0.1-0.1c0-0.1-0.1-0.1-0.2-0.1
		c0,0,0.1,0,0.1,0c-0.2-0.1-0.5-0.4-0.5-0.6c-0.3,0.2-0.1-0.3-0.4-0.1c0-0.3-0.5-0.3-0.5-0.3c0,0.1-0.1,0.2-0.1,0.3
		c0-0.1,0-0.2,0-0.3c0,0,0,0.1,0,0.1c0-0.1,0-0.1,0-0.2c-0.2,0.3-0.3-0.1-0.6,0.2c0-0.5-0.1,0.1-0.4-0.1c0,0.1,0,0.2,0,0.2
		c-0.4-0.2-0.4-0.2-0.6,0.2c0-0.1-0.1-0.2-0.1-0.3c-0.2,0.1-0.3,0.2-0.3,0.4c-0.1-0.2,0,0-0.1-0.1c0,0.1,0,0.1-0.1,0.1
		c0,0.1,0.1,0.3-0.1,0.1c0,0,0.1,0.1,0.1,0.1c0,0-0.1,0-0.2,0c0,0,0.1,0,0.1,0.1c-0.2,0-0.2,0.2-0.3,0.2c0.1,0,0.1,0.1,0.2,0.1
		c0,0-0.2,0-0.3,0c0.1,0.2,0.1,0.1-0.1,0c0.2,0.2-0.1,0.3,0.1,0.4c-0.1,0-0.1,0-0.1-0.1c-0.2,0.1-0.2,1-0.2,1.1
		c0.1,0.1,0.1,0.1,0.2,0.2C26.3,21.2,26.8,21.6,26.5,21.8z M29.8,19.1C29.8,19.1,29.7,19.1,29.8,19.1C29.8,19.1,29.8,19.1,29.8,19.1
		z M30.2,19.3c0,0.1,0.2-0.1-0.1,0.1C30.1,19.3,30.2,19.2,30.2,19.3C30.2,19.3,30.2,19.2,30.2,19.3z M30.2,19
		c-0.2,0.3,0.1,0.5-0.4,0.2C29.9,19.1,30,19.1,30.2,19z M29.5,19c0.1,0,0.2-0.1,0.3-0.1c-0.2,0.3-0.3,0.1-0.6,0.1
		C29.3,18.9,29.4,18.9,29.5,19z M29,18.7c0.1,0.1,0.1-0.1,0.1,0c-0.1,0-0.1,0.2,0,0.2c0,0-0.1,0-0.1,0c0,0,0,0,0,0l0,0c0,0,0,0,0,0
		C29,18.9,29,18.8,29,18.7C29,18.7,29,18.7,29,18.7z M29,18.9C28.9,19,29,18.9,29,18.9L29,18.9z M29,18.9C29,18.9,29,18.9,29,18.9
		L29,18.9z M28.8,18.9c0-0.1,0.1-0.1,0.2,0c0,0-0.1-0.1,0,0C28.9,18.9,28.7,18.9,28.8,18.9z"/>
	<path class="st3" d="M29.7,37.9L29.7,37.9C29.7,37.9,29.6,37.8,29.7,37.9z"/>
	<path class="st3" d="M29.9,23L29.9,23C30,23,29.9,23,29.9,23z"/>
	<path class="st3" d="M30.2,19C30,19.2,30.1,19,30.2,19L30.2,19z"/>
	<path class="st3" d="M29,18.7C29,18.7,29,18.7,29,18.7C29,18.8,29.1,18.8,29,18.7z"/>
	<path class="st3" d="M58.1,32c-0.4,0.3-0.9,1.1-1.1,1.8c-0.2,0.8-0.2,1.6-0.2,2.1l0-0.1c0.2,1.4,0.8,2.9,1.3,4
		c0.2,0.4,0.3,0.9,0.3,1.4c0,0.5-0.1,0.8,0,0.9c0.2-0.5,0.2-1,0.1-1.4c0.1-0.1,0.1-0.4,0-0.8c-0.1-0.4-0.3-0.8-0.5-1.2
		c0.1,0.3,0.2,0.6,0.4,0.9c-0.1-0.2-0.1-0.1-0.2-0.3c-0.2-0.7-0.5-1.2-0.6-1.6c-0.2-0.4-0.3-0.9-0.4-1.6l0,0.1
		c-0.1-0.4-0.2-0.8-0.2-1.2c0-0.4,0.1-0.2,0.1-0.1c0-0.5,0.1-1,0.2-1.5C57.4,33,57.6,32.5,58.1,32z"/>
	<path class="st3" d="M57,35L57,35C57,35,57,35,57,35z"/>
	<path class="st3" d="M60.1,25.2l-0.3,0C59.8,25.3,59.9,25.3,60.1,25.2z"/>
	<path class="st3" d="M84.3,26.5l-0.1-0.1l0-0.1c-0.2,0-0.8-0.3-1.4-0.5c-0.6-0.2-1.2-0.3-1.4-0.3c-0.1-0.1,0.2,0,0.4,0
		c-0.5-0.3-1-0.2-1.8-0.4c0.1,0-0.1-0.1,0-0.1c-1.3-0.4-2.8-0.6-4.5-0.7c-1.7-0.1-3.4-0.1-5.1-0.1c-0.9,0,0.3,0.2-0.9,0.2
		c-0.4-0.1,0.6-0.2-0.2-0.2c-0.6,0.1-0.8,0.1-1.5,0.1c0.1-0.1,0-0.1,0.5-0.2c-0.4-0.1-1.8,0.3-2.7,0.2c0,0-0.1,0.1-0.3,0.1
		c-1.2,0.3-2.9,0.2-3,0.3c0,0-0.4,0.1-0.1,0.1c-0.5,0.1-1.1,0.1-1,0c-0.2,0.1-0.4,0.2-0.8,0.3l0.2-0.1c-0.2,0.1-0.4,0.2-0.6,0.2
		l0.3,0c-0.5,0-1.5,0.4-1.5,0.2l0.2,0l-1,0.1c-0.4,0.1-0.8,0.3-1.4,0.4c-0.3-0.2-1.7,0.2-2.5,0.3l0-0.1c-0.6,0.2-2.3,0.4-2,0.4
		c-0.6,0.1-1.5,0.2-1.2,0.1c-0.2,0-0.5,0.1-0.7,0.1l-1-0.5c-0.7-0.4-1.6-0.7-1.9-0.7c-0.1-0.1,0.2,0,0.4,0c-0.5-0.4-1-0.3-1.7-0.5
		c0.1,0-0.1-0.1,0-0.1c-1.2-0.4-2.8-0.7-4.4-0.8c-1.6-0.1-3.4-0.2-5-0.3c-0.9,0,0.3,0.2-0.9,0.2c-0.3-0.1,0.6-0.2-0.2-0.2
		c-0.5,0.1-0.7,0.1-1.5,0.1c0.1-0.1,0-0.1,0.5-0.2c-0.4-0.1-1.8,0.2-2.6,0.1c0,0.1-0.1,0.1-0.3,0.1c-1.2,0.2-2.8,0.1-2.9,0.2
		c0,0-0.4,0.1-0.1,0c-0.4,0.1-1.1,0.1-1,0c-0.2,0.1-0.4,0.2-0.8,0.3l0.2-0.1c-0.2,0.1-0.4,0.2-0.6,0.2l0.3,0c-0.5,0-1.5,0.4-1.5,0.2
		l0.2,0l-1,0.1c-0.4,0.2-0.7,0.3-1.4,0.4c-0.3-0.1-1.6,0.3-2.4,0.4l0-0.1c-0.3,0.1-0.9,0.2-1.3,0.2C19,26,18.7,26,18.8,26
		c-0.6,0-1.4,0-1.1-0.1c-0.5,0-1.5,0-1.8,0.1c-0.3-0.1-0.7-0.2-1-0.3c-0.6,0.2-2-0.4-2.1-0.1c-0.5-0.1-0.4-0.2-0.8-0.3
		c-0.3,0-0.6,0-0.8-0.1L9,25l1.7,1.3c0.4,0.3,0.9,0.7,1.4,1l0,0c0.8,0.4,1.8,0.6,3,0.8l0.2,0.2c0.6,0,0.8-0.1,1.4,0
		c0.1,0,1.2,0.1,1.6,0.2c0.9-0.1,1,0.1,1.7,0.1c0.6,0.3-0.4-0.2,0.1,0.1c0.6,0.1,1.2,0.2,1.8,0.3c0.6,0.1,1.2,0.2,1.7,0.5
		c0.1,0.1-0.1,0-0.1,0.1c0,0,0.1,0,0.3,0.1c0.2,0.1,0.3,0.2,0.4,0.4c0.1,0.2,0,0.5-0.1,0.6c-0.1,0.1-0.1,0.2,0,0.2
		c-5.6,5.3,2.5,9-1.9,12.1c-1.2,0.8-2.4,4.7-3.8,8.5c0.1-0.5,0.2-1,0.5-1.7l0,0.2l0.5-1.3l0,0.1l0.3-1.1l0.1,0.1
		c0.1-0.2,0-0.3,0.2-0.6l0,0.1c0-0.4,0.4-1.6,0.7-2.2l0.1-0.1c0.2-0.5,0.3-1,0.6-1.4c0.5-0.6-0.4,1,0.5-0.4
		c-0.1,0.1-0.1,0.3-0.1,0.4c0.1-0.2,0.3-0.4,0.4-0.6c0.1-0.1,0.3-0.2,0.4-0.3c0.2-0.2,0.4-0.3,0.6-0.6c-0.3,0.2-0.6,0.5-0.4,0.2
		c0.4-0.2,0.6-0.5,0.6-0.8c0.1-0.3,0.1-0.6,0-1c0,0.4,0,0.6,0,0.9c-0.2,0.4-0.1,0.1-0.3,0.3c-0.1,0.2-0.2,0.3-0.3,0.5
		c-0.1,0-0.1,0-0.2,0c-0.1,0.1-0.2,0.2-0.4,0.4c-0.1,0-0.2,0.1-0.2,0.2c-0.1,0.1-0.1,0.2-0.2,0.2c0-0.1-0.2,0.1-0.3,0.3
		c-0.1,0.2-0.2,0.3-0.2,0.1c-0.4,0.7-0.6,1.1-0.8,1.8c-0.3,0.5,0.2-0.8,0-0.3c-0.6,1.5-1.1,2.9-1.6,4.4c-0.3,0.7-0.5,1.5-0.8,2.2
		l-0.4,1.1l-0.3,0.8c-0.1,0.3-0.3,0.6-0.4,0.9l0.1-0.4c-0.1,0.5-0.3,1-0.4,1.3l-0.8,1.4l-1.4,2.5l0.1-0.1l0.1-0.1
		c0.1-0.1,0.1-0.1,0.2-0.1l0.1-0.1c0,0,0,0,0.1-0.1c0.4-0.4,0.8-0.8,1.1-1.2c0.1-0.1-0.1,0.2-0.3,0.3c0.3-0.3,0.6-0.6,1-0.9
		c0.3-0.3,0.7-0.7,1.2-1.1c0.4-0.4,0.9-0.9,1.4-1.4l0.6-0.6l0.4-0.4c0.3-0.6,1.6-1.6,1.8-2.3l-0.2,0.3c-0.4,0.3,0.3-0.7,0.4-0.9
		c0.4-0.2,0.1,0.1,0.6-0.2l-0.4,0.4l0.2,0c0.9-1.7,2.4-2.7,2.9-3.9c0,0.1,0,0.1,0,0.1c0.5-0.6,0.7-1.2,1-1.7c0.1,0-0.1,0.4-0.2,0.7
		c0.2-0.3,0.4-0.6,0.7-1c0.2-0.4,0.5-0.9,0.6-1.3c0.4-0.9,0.6-1.9,0.8-2.7c0-0.6-0.2,0.2-0.2-0.4c0.1-0.5,0.2-0.8,0.2-0.2
		c0.2-0.7,0.3-1.8,0.3-3c0-0.2,0-0.4,0-0.6c0,0,0-0.1,0-0.1c0,0,0,0,0,0.1c0,0,0.1,0.1,0.1,0.1l0.2,0.3l0.1,0l0.2,0.1
		c0.1,0.1,0.2,0.1,0.3,0.1c0.2,0.1,0.4,0.2,1.1,0.7c-0.4-0.2,0.2,0.4-0.6-0.1l-0.1,0c0.7,0.5,1.4,1.1,2,1.6c0.6,0.5,0.9,1,1.1,1.4
		c-0.1,0-0.1,0.1-0.1,0.2c0,0.1,0,0.3-0.1,0.5c0,0.2,0,0,0.1-0.1c0,0.2,0,0.4-0.1,0.5c-0.2,0.4-0.2,0.7-0.1,1c0-0.1,0-0.1-0.1-0.2
		c0.1,0.5,0.2,0.9,0.4,1.2c0,0.2,0.1,0.5,0.1,0.6l0.1-0.1c0.3,0.6,0,0.4,0.3,1.1l0-0.2c0.2,0.5,0.7,1.1,0.6,1.3c0,0-0.1-0.1-0.1-0.2
		c0.2,0.8,1,1.8,1.5,2.6l0-0.3c0.5,0.8,0.3,0.5,0.2,0.5c0.3,0.5,0.3,0.7,0.8,1.4c0.3,0.3,0.2,0.1,0.3,0.2l0.4,0.7l-0.4-0.4
		c0.2,0.2,0.5,0.5,0.7,0.8c0.1,0.2,0.2,0.3,0.3,0.5l0.3,0.5c0.7,1,1.4,2.1,1.7,2.3c0.2,0.4,0.2,0.3,0.1,0.2c-0.1-0.1-0.2-0.3-0.1,0
		c0.3,0.5,0.7,1,1,1.5c0-0.5-0.1-1.1-0.1-1.7c-0.1-0.6-0.1-1.1-0.2-1.6L40,52.2c0-0.3,0-0.6,0-0.8c-0.1-2.1-0.6-4.5-1-6.8l0,0.1
		c-0.1-0.5-0.2-1.1-0.4-1.6c-0.2-0.4-0.5-1.5-0.9-2.1c0.1,0,0.1-0.1,0.2,0c-0.1-0.3-0.3-0.7-0.4-1c-0.1-0.3-0.3-0.6-0.3-0.8l0.1,0.2
		c-0.6-1.4-1.7-3.4-2.2-4c-0.3-0.5-0.2-0.5-0.2-0.6c-0.4-0.8-0.8-1.3-1.2-1.9c-0.1-0.2-0.1-0.4-0.2-0.6L33.2,32
		c-0.1-0.3,0.1-0.1,0-0.4c0-0.1-0.1-0.1-0.1-0.1c0,0,0-0.1,0-0.1c0-0.1,0-0.3,0.1-0.4c0.1-0.3,0.2-0.6,0.4-0.9
		c0.3-0.6,0.8-1,1.1-1.3l-0.1,0c0.1-0.1,0.3-0.3,0.5-0.4c0.2-0.1,0.2-0.1,0.1,0.1c0.8-0.4,1.4-0.8,2.1-1.1c0.7-0.3,1.5-0.6,2.8-0.8
		c0.2,0.1,0.8,0,1.3-0.1c0.6-0.1,1.2-0.1,1.4,0c1.1-0.1,1.8,0.1,2.5,0c0,0,0.1,0-0.1,0c0.4,0.1,1.8,0.2,2.9,0.4
		c-0.3,0.2-0.8,0.2-1.2,0.2c-0.4,0-0.8,0-0.8,0.1c-0.6,0-0.4-0.1-0.8-0.2c-0.1,0-0.1,0-0.1,0l-1.9,0.1l1.4,1c0.7,0.5,1.5,0.9,2.4,1
		l0,0c0.9,0.2,2,0,3.2-0.1l0.3,0.2c0.6-0.1,0.8-0.3,1.3-0.3c0.1,0,0,0-0.1,0.1c0.6-0.1,1.3-0.1,1.8-0.1c0.9-0.2,1.5-0.1,2.3-0.2
		c0.3,0.1,0.1,0.1-0.2,0.1c-0.3,0-0.5,0-0.3,0.1c0.6,0.1,1.2,0.2,1.8,0.3c0.6,0.1,1.2,0.2,1.8,0.5c0.1,0.1-0.1,0-0.1,0.1
		c0,0,0.6,0.2,0.7,0.5c0.1,0.2,0,0.5-0.1,0.6c-0.1,0.1-0.1,0.2,0,0.2c-5.6,5.3,2.5,9-1.9,12.1c-1.4,1-2,5.4-3.3,9.2c0,0,0-0.1,0-0.1
		c0.1-0.5,0.2-1,0.4-1.7l0,0.2l0.4-1.3l0,0.1l0.2-1.1l0.1,0.1c0-0.3,0-0.3,0.1-0.7l0.1,0.1c0-0.4,0.2-1.7,0.4-2.3l0.1-0.1
		c0.1-0.5,0.2-1,0.4-1.5c0.5-0.7-0.3,1,0.4-0.5c0,0.2-0.1,0.3-0.1,0.5c0.2-0.5,0.5-0.8,0.7-1c0.2-0.2,0.4-0.3,0.7-0.6
		c-0.3,0.2-0.7,0.5-0.4,0.2c0.4-0.2,0.6-0.5,0.7-0.8c0.1-0.3,0.1-0.6,0.1-1c0,0.4-0.1,0.6-0.1,0.9c-0.2,0.3-0.2,0.1-0.3,0.3
		c-0.1,0.2-0.2,0.3-0.3,0.5l-0.2,0c-0.1,0.1-0.1,0.1-0.2,0.2c-0.1,0.1-0.2,0.2-0.2,0.2c-0.2,0.2-0.3,0.3-0.4,0.5
		c0-0.1-0.2,0.2-0.3,0.4C56,44.3,56,44.4,56,44.2c-0.3,0.8-0.5,1.2-0.6,1.9c-0.2,0.5,0.2-0.8,0-0.3c-0.4,1.5-0.8,3.1-1.2,4.6
		c-0.2,0.8-0.4,1.5-0.7,2.3l-0.1,0.3l-0.2,0.5c-0.1,0.3-0.2,0.6-0.4,0.9c-0.3,0.6-0.8,1.5-1.3,2.4l0.2-0.5l-0.2,0.6
		c0.3-0.2,0.5-0.3,0.5-0.3l-0.1,0.2l0,0c0,0,0,0,0,0l0,0l0.1,0l0.2-0.1c0.3-0.1,0.6-0.3,0.9-0.5c0.3-0.2,0.7-0.5,1.1-0.8
		c0.4-0.3,0.7-0.7,0.9-1c0.1-0.1,0,0.1-0.1,0.2l0.8-0.9c0.3-0.3,0.5-0.6,0.8-0.9c0.6-0.6,1.1-1.3,1.6-1.9c0.2-0.7,1.5-1.8,1.5-2.5
		l-0.1,0.3c-0.4,0.4,0.2-0.7,0.3-1c0.4-0.3,0.1,0.1,0.6-0.3L60.1,48l0.2,0c0.4-0.9,0.9-1.7,1.4-2.4l0.3-0.5c0.1-0.2,0.2-0.3,0.3-0.5
		c0.2-0.3,0.3-0.7,0.3-1c0,0.1,0,0.1,0,0.2c0.4-0.8,0.3-1.4,0.4-2c0.1-0.1,0.1,0.4,0,0.7c0.2-0.7,0.4-1.7,0.4-2.7c0-0.5,0-1,0.1-1.5
		l0-0.4c0-0.1,0-0.2,0-0.2c0-0.1,0-0.1,0-0.2c-0.1-0.1-0.1-0.2-0.1-0.2c0,0-0.1,0-0.1-0.2c0-0.1,0-0.2,0.1-0.1c0,0,0.1,0.2,0.1,0.3
		c0,0,0,0,0.1-0.1c0,0.1,0.1,0.1,0.1,0.2c0,0.1,0.1,0.1,0.1,0.1l0.2,0.1c0.1,0.1,0.2,0.2,0.4,0.3c1,0.7,2.1,1.4,2.6,2.2
		c0.4,0.3,0.4,0.4,0.5,0.5c0.1,0.1,0.1,0.1,0.2,0.3c0.1,0.1,0.2,0.4,0.2,0.7c0-0.2-0.1-0.1-0.2-0.1c-0.1,0-0.1,0-0.1-0.4
		c0,0-0.1,0-0.1-0.1c0.1,0.3,0.1,0.7-0.1,1.1c-0.1,0.1-0.1,0.3-0.1,0.4c0,0.1,0,0.2,0,0.4c0,0.2,0.1,0.4,0.1,0.6
		c0.1,0.4,0.2,0.7,0.3,0.9c0.2,0.6,0.5,1,0.7,1.3c-0.1,0.1,0.1,0.3,0.3,0.9c0.1,0.2,0,0,0-0.1c0.4,0.5,0.4,0.8,0.6,1.2l-0.1-0.1
		l0.7,1c0.1,0.2,0.2,0.5,0.2,0.5l0.1-0.1c0.3,0.6,0,0.4,0.4,1l0-0.2c0.2,0.5,0.7,1.1,0.7,1.3c0,0-0.1-0.1-0.2-0.2
		c0.2,0.8,1.1,1.7,1.6,2.6l0-0.3c0.6,0.8,0.3,0.5,0.2,0.5c0.2,0.3,0.3,0.4,0.4,0.6l0.2,0.3l0.1,0.2l0.2,0.4c0.4,0.6,0.2,0.3,0.4,0.4
		l0.8,1.3c-0.2-0.2-0.3-0.4-0.5-0.6c0.4,0.5,0.8,1,1.2,1.6c0.4,0.6,0.8,1.2,1.2,1.9c-0.1-0.9-0.3-1.9-0.5-2.7c0-0.3,0-0.1,0.1,0.2
		c0.1,0.3,0.1,0.6,0.1,0.4c0-0.5-0.1-1.3-0.3-2l-0.2-1.1l-0.1-0.5L76,53.9c-0.2-0.8-0.4-1.6-0.4-2.3c-0.3-2.1-0.9-4.5-1.4-6.9l0,0.1
		c-0.1-0.6-0.3-1.1-0.4-1.7c-0.2-0.4-0.6-1.5-1-2.2c0.1,0,0.1-0.1,0.2,0c-0.3-0.7-0.7-1.4-0.8-1.8l0.1,0.2c-0.7-1.5-1.7-3.4-2.3-4.1
		c-0.3-0.5-0.2-0.5-0.2-0.7c-0.5-0.8-0.8-1.3-1.2-1.9c-0.1-0.2-0.1-0.4-0.2-0.6c-0.1-0.1-0.2-0.1-0.2-0.2c0-0.1,0-0.1,0-0.1
		c0,0,0.1,0,0.1-0.1c0-0.2,0.1-0.6,0.2-0.9c0.1-0.3,0.3-0.6,0.5-0.9c0.4-0.5,0.9-0.9,1.2-1.2c0,0-0.1,0-0.1,0
		c0.1-0.1,0.4-0.3,0.6-0.3c0.2-0.1,0.3-0.1,0.1,0.1c0.8-0.4,1.5-0.7,2.2-1c0.7-0.3,1.6-0.6,2.9-0.7c0.2,0.1,0.8,0,1.4,0
		c0.6,0,1.2,0,1.4,0.1c1.1,0,1.8,0.1,2.6,0.1c0,0,0.1,0.1-0.1,0c0.4,0.1,1.8,0.3,2.9,0.4L87,28L84.3,26.5z M16.1,56.9l-0.4,0.4
		c0-0.1,0-0.1,0-0.1c0-0.1-0.1,0-0.3,0.1c0-0.1,0-0.2-0.2,0c0.1-0.2,0.4-0.7,0.6-1c0.1-0.1,0.1-0.2,0.1-0.2c0,0,0,0.2-0.1,0.4
		c0.2-0.4,0.5-0.9,0.7-1.3c0.2-0.4,0.4-0.7,0.5-0.9c0.2-0.3,0.3-0.5,0.4-0.7C17.1,54.8,16.6,55.9,16.1,56.9c0.2-0.4,0.6-0.7,1-1.1
		C16.8,56.1,16.5,56.5,16.1,56.9z M17.5,55.4c-0.1,0.1-0.1,0.1-0.2,0.1c0.1-0.1,0.3-0.3,0.5-0.5C17.7,55.2,17.6,55.3,17.5,55.4z
		 M17.9,52.6c-0.1,0.2-0.1,0.4-0.2,0.5c0,0-0.1,0-0.1,0.1c-0.1,0.1-0.1,0,0.1-0.4C17.8,52.7,17.8,52.7,17.9,52.6l0-0.3
		C18,52.1,18,52.4,17.9,52.6z M20.7,52c-0.3,0.5-0.8,1-1.2,1.5L18.2,55c0.1-0.2,0.1-0.3,0.1-0.4c0,0,0-0.1,0.1-0.1
		c1.4-1.5,3.1-3.3,4.6-5.2C22.3,50.1,21.8,50.9,20.7,52z M25.1,46.9c-0.6,0.7-0.4,0.7-1.2,1.5c0.1-0.2,0.3-0.5,0.3-0.7
		c-0.2,0.2-0.3,0.4-0.5,0.6c0.3-0.4,0.6-0.7,0.8-1.1l-0.1,0.2C24.8,47.1,25.4,46.1,25.1,46.9z M24.9,46.8L24.9,46.8
		c0.1-0.3,0.3-0.5,0.4-0.7C25.3,46.2,25.2,46.4,24.9,46.8z M25.8,45.4C25.8,45.4,25.8,45.4,25.8,45.4c0.2-0.3,0.4-0.7,0.6-1
		c0.2-0.3,0.3-0.7,0.5-1C26.7,44,26.4,44.6,25.8,45.4z M33.8,45.4c0.1,0.3,0.3,0.6,0.4,0.9c0,0-0.1-0.1-0.2-0.2
		c-0.2-0.3-0.4-0.7-0.5-1C33.7,45.3,33.8,45.4,33.8,45.4z M55,54.1c-0.2,0.2-0.5,0.6-0.8,0.8c-0.6,0.6-1.2,1-1.5,1.4
		c0,0-0.3,0.1-0.4,0.2c-0.1,0.1-0.1,0,0.5-0.4c-0.3,0.3-0.9,0.6-0.6,0.2c0.1-0.2,0.2-0.5,0.4-0.8l0.4-0.7c-0.2,0.4-0.4,0.8-0.6,1.2
		c0.8-0.5,1.8-1.3,2.8-2.4C55.2,53.8,55.1,53.9,55,54.1z M55.5,53.4c0.1-0.2,0.3-0.3,0.4-0.5C55.8,53.1,55.7,53.2,55.5,53.4z
		 M60.2,47c-0.4,0.7-0.9,1.5-1.6,2.4c-0.6,1.1-1.5,2.3-2,3c0-0.1-0.1-0.1-0.1-0.3c1.4-1.8,2.8-3.9,4-5.8
		C60.4,46.6,60.3,46.8,60.2,47z M62.3,43.6c-0.2,0.4-0.3,0.6-0.4,0.8c-0.1,0.2-0.2,0.5-0.5,0.9c0.1-0.2,0.2-0.6,0.2-0.8
		c-0.2,0.3-0.3,0.5-0.5,0.7c0.1-0.2,0.2-0.4,0.3-0.5c0.1-0.2,0.3-0.5,0.4-0.8c0,0.1,0,0.1,0,0.2C62.2,43.9,62.5,42.8,62.3,43.6z
		 M62.6,41.9C62.6,42,62.6,42,62.6,41.9c0.2-0.7,0.3-1.5,0.3-2.3C62.9,40.3,62.9,41,62.6,41.9z M71.2,50c0.2,0.3,0.3,0.6,0.5,0.9
		c-0.1,0-0.1-0.1-0.2-0.2c-0.2-0.3-0.4-0.7-0.6-1C71.1,49.9,71.2,50,71.2,50z"/>
	<path class="st3" d="M58.8,31c-0.2,0.2-0.4,0.5-0.6,0.8c0.2-0.3,0.5-0.6,0.8-0.8L58.8,31z"/>
	<path class="st3" d="M67.6,41.3L67.6,41.3C67.6,41.2,67.6,41.2,67.6,41.3z"/>
	<path class="st3" d="M61.7,44.6L61.7,44.6C61.7,44.4,61.7,44.5,61.7,44.6z"/>
	<path class="st3" d="M58.2,41.1c0-0.2,0-0.4-0.1-0.6C58.2,40.8,58.2,41,58.2,41.1z"/>
	<polygon class="st3" points="66.2,20.9 66.3,20.9 66.2,20.8 	"/>
	<path class="st3" d="M65.8,20.1c0.1,0,0.1,0,0.2,0c-0.1,0.1-0.1,0.1,0,0.2l0-0.1c0,0,0.1,0,0.1,0c0,0.1,0.2,0.1,0,0.2l0,0l0.1,0.1
		c0,0-0.1,0-0.1,0c0.1,0.1,0.2,0.1,0.2,0.2c0.3-0.1-0.2-0.2,0-0.3l0,0c-0.1-0.1,0-0.2-0.1-0.3C66.1,20.1,66,20.1,65.8,20.1z"/>
	<path class="st3" d="M65.3,19.1C65.1,19.3,65.2,19.1,65.3,19.1L65.3,19.1z"/>
	<path class="st3" d="M61.7,21.9c0.2,0,0.3,0.1,0.1,0.2c0,0,0.1,0,0.1,0c0,0-0.1,0.1-0.1,0.1c0.2,0,0.8,1.1,1,0.9
		c-0.1,0.1,0.2,0.2,0.2,0.2c0.1-0.1,0.2-0.1,0.3-0.2c-0.1,0-0.1,0.1,0,0.2c0,0,0.1-0.1,0.1-0.1c-0.2,0.5,0.8,0.1,0.8,0
		c0,0.1,0,0.1,0,0.2c0-0.1,0-0.1,0.1-0.1c0,0.2,0.6-0.1,0.6-0.1c0,0,0,0.1,0,0.1c0-0.1,0-0.1,0-0.2c0,0,0.1,0,0.1,0
		c0,0,0.2,0.1,0.2,0.1c0-0.2,0.2-0.2,0.3-0.2c0-0.1,0.2-0.3,0.2-0.2c0-0.1,0-0.1,0-0.2c0.2,0,0.3-0.1,0.2-0.2
		c0.3-0.1,0.1-0.2,0.2-0.5c0.1,0,0.1,0,0.2,0.1c0,0-0.1-0.1-0.1-0.2c0.2,0,0.1-0.2,0-0.4c0.1,0,0.1,0.1,0.2,0.1
		c0.2-0.2-0.2-0.4,0.1-0.3c-0.3-0.3-0.6,0-0.7-0.5c-0.1-0.4-0.3-0.8-0.6-1.1c0.1,0,0.3,0.1,0.3,0.1c0,0,0,0-0.1,0
		c0.1-0.1,0.3,0,0.4,0.1c0,0.1-0.2,0.1-0.3,0.2c0,0,0.1,0.1,0.1,0.1c0-0.1,0.1-0.1,0.1-0.1c-0.1,0.1,0.1,0.1,0.2,0.1
		c0,0-0.1-0.1-0.1,0c0,0,0-0.1,0.1-0.1c0,0-0.1,0-0.1,0c0,0,0.1,0,0.1-0.1c0,0-0.1,0-0.1,0c0-0.1,0.1-0.1,0.1-0.1
		c0-0.1-0.1-0.1-0.2-0.1c0,0,0.1,0,0.1,0c-0.2-0.1-0.5-0.4-0.5-0.6c-0.3,0.2-0.1-0.3-0.4-0.1c0-0.3-0.5-0.3-0.5-0.3
		c0,0.1-0.1,0.2-0.1,0.3c0-0.1,0-0.2,0-0.3c0,0,0,0.1,0,0.1c0-0.1,0-0.1,0-0.2c-0.2,0.3-0.3-0.1-0.6,0.2c0-0.5-0.1,0.1-0.4-0.1
		c0,0.1,0,0.2,0,0.2c-0.4-0.2-0.4-0.2-0.6,0.2c0-0.1-0.1-0.2-0.1-0.3c-0.2,0.1-0.3,0.2-0.3,0.4c-0.1-0.2,0,0-0.1-0.1
		c0,0,0.1,0.1,0,0.1c0,0-0.1,0-0.1,0c0,0.1,0.1,0.3-0.1,0.1c0,0,0.1,0.1,0.1,0.1c0,0-0.1,0-0.2,0c0,0,0.1,0,0.1,0.1
		c-0.2,0-0.2,0.2-0.3,0.2c0.1,0,0.1,0.1,0.2,0.1c0,0-0.2,0-0.3,0c0.1,0.2,0.1,0.1-0.1,0c0.2,0.2-0.1,0.3,0.1,0.4
		c-0.1,0-0.1,0-0.1-0.1c-0.2,0.1-0.2,1-0.2,1.1c0.1,0.1,0.1,0.1,0.2,0.2C61.4,21.3,61.9,21.7,61.7,21.9z M64.9,19.2
		C64.9,19.2,64.8,19.2,64.9,19.2C64.9,19.2,64.9,19.2,64.9,19.2z M65.2,19.5c-0.1-0.1,0.1-0.1,0.1-0.1
		C65.3,19.5,65.5,19.3,65.2,19.5z M65.3,19.1c-0.2,0.3,0.1,0.5-0.4,0.2C65,19.2,65.1,19.2,65.3,19.1z M64.6,19.1
		c0.1,0,0.2-0.1,0.3-0.1c-0.2,0.3-0.3,0.1-0.6,0.1C64.4,19,64.5,19,64.6,19.1z M64.1,18.8c0.1,0.1,0.1-0.1,0.1,0
		c-0.1,0-0.1,0.2,0,0.2c0,0-0.1,0-0.1,0c0,0,0,0,0,0l0,0c0,0,0,0,0,0C64.1,19,64.1,18.9,64.1,18.8C64.1,18.8,64.1,18.8,64.1,18.8z
		 M64.1,19C64,19.1,64.1,19,64.1,19L64.1,19z M63.9,19c0-0.1,0.1-0.1,0.2,0c0,0-0.1-0.1,0,0C64,19,63.8,19,63.9,19z"/>
	<path class="st3" d="M65,23.1L65,23.1C65.1,23.1,65,23.1,65,23.1z"/>
	<path class="st3" d="M64.1,18.8C64.1,18.8,64.1,18.8,64.1,18.8C64.1,18.9,64.2,18.9,64.1,18.8z"/>
</g>
<g>
	<path class="st4" d="M46.8,23.1L46.8,23.1C46.9,23.1,46.8,23.1,46.8,23.1z"/>
	<path class="st4" d="M45.8,18.1C45.8,18.1,45.8,18.1,45.8,18.1C45.7,18.2,45.8,18.2,45.8,18.1z"/>
	<path class="st4" d="M47.1,18.4C46.9,18.6,47.1,18.4,47.1,18.4L47.1,18.4z"/>
	<path class="st4" d="M47.8,19.6c0,0,0,0-0.1,0c0.1,0,0.1,0,0.2,0c-0.1,0.1-0.1,0.1,0,0.2c0.1-0.1,0.1,0,0.1,0.2c0,0,0.3,0.2,0,0.1
		c0.1,0.1,0.2,0.1,0.2,0.3C48.3,20.4,48.3,19.5,47.8,19.6z"/>
	<path class="st4" d="M47.1,23.1C47.1,23.1,47.1,23.1,47.1,23.1C47.1,23.1,47.1,23.1,47.1,23.1z"/>
	<path class="st4" d="M48.2,20.6C48.3,20.5,48.3,20.5,48.2,20.6L48.2,20.6z"/>
	<path class="st4" d="M48.2,19.6C48.2,19.6,48.1,19.6,48.2,19.6C48.1,19.6,48.1,19.6,48.2,19.6z"/>
	<path class="st4" d="M44.3,18L44.3,18C44.3,18,44.3,18,44.3,18z"/>
	<path class="st4" d="M64.2,29.1c-0.1,0-0.1,0.1-0.2,0.1c-0.1,0-0.1,0-0.1,0c0,0,0,0-0.1,0c0,0-0.1,0-0.2,0.1c0,0,0-0.1,0.1-0.1
		c-0.6,0.3-1.3,0.5-2,0.6c-0.6,0-1.6,0-2.2-0.1c0.9-0.1,1.7,0,2.4,0c-0.1,0-0.3-0.1-0.5-0.2c-0.1,0-0.1,0-0.1-0.1
		c0,0-0.1-0.1-0.1-0.1c0,0,0,0,0,0c0,0,0,0-0.2,0l-0.6,0.1c0,0,0,0-0.1,0c-0.1,0-0.3,0.1-0.5,0.1c-0.2,0-0.4,0.1-0.7,0.1l-0.1,0
		c0,0-0.1,0-0.1,0l-0.1,0l-0.2,0c-0.1,0-0.2,0-0.4-0.1c-0.2-0.1-0.5-0.1-0.8-0.2c-0.1,0-0.3-0.1-0.4-0.1c-0.1,0-0.2,0-0.3,0
		c0.2,0,0.4,0,0.6,0c0.2,0,0.4,0,0.5,0c0.3,0,0.4,0,0.7-0.1c-0.4,0-0.7-0.1-1.1-0.1l-0.1,0l-0.1,0l-0.2,0l-0.3,0
		c-0.5-0.1-1-0.2-1.6-0.4c0.4,0,0.7,0.1,1.1,0.1c-1.6-0.5-3.6-1-5.1-1.4c0.4,0-0.1-0.3,0.5-0.2l-1.6-0.6l0.5,0
		c-0.7-0.1-1.4-0.5-1.4-0.2c0.2,0,0.2,0,0.5,0.1c-0.1,0.1-0.4,0.1-1.2-0.3c-0.5-0.3,0.4,0,0.2-0.1c-0.6-0.1-0.5-0.3-1.1-0.4l0.4,0.3
		c-0.4,0-0.9-0.3-1.5-0.5c0.7,0.2,0.5,0,0.3-0.2l0,0c-0.4-0.1-1-0.2-1.2-0.4l0.4-0.1c-0.2,0-0.4,0-0.7,0c-0.2-0.1-0.4-0.2,0-0.1
		c-1-0.3-1-0.2-1-0.1c-0.1,0.1-0.2,0.1-1.5-0.1c0.1-0.1,0.3-0.1,1,0.1c0.1-0.1,0-0.2-0.7-0.4c0,0,0,0,0,0c-1.3-0.2-3.1-0.2-4-0.1
		c-0.3,0,0-0.1,0.3-0.2c-0.8,0-1.2,0.1-1.7,0.1c-0.5,0.1-1,0.2-1.8,0.2c0.2,0,0.5,0,0.7,0c-0.5,0.1-1.2,0.3-1.9,0.5
		c-0.7,0.2-1.3,0.3-1.8,0.4l0.3-0.1c-0.9,0.4-2.4,0.7-2.7,1c0.4-0.1,0,0.1,0.6-0.1c-0.7,0.4-1.4,0.7-2.1,1.2L29,26.9
		c-0.4,0.2-0.7,0.5-1.1,0.7c0.2,0-0.2,0.2-0.6,0.4c-0.3,0.2-0.6,0.5-0.8,0.6c-0.2,0.2-0.3,0.3-0.2,0.3c-0.4,0.3-0.4,0.3-0.3,0.1
		c0.1-0.2,0.5-0.5,0.6-0.7c-0.4,0.4-0.7,0.6-0.8,0.8c-0.2,0.2-0.4,0.4-0.5,0.7c-0.2,0.2-0.4,0.5-0.5,0.7c0,0.1,0,0.2,0,0.3
		c0,0.1,0,0.1,0.1,0.2l0,0.1c0,0,0,0,0,0l0,0c0.1,0.1,0.2,0.1,0.4,0.2l0.2-0.1c-0.2,0.1,0,0-0.2,0.1c0.8-0.3,1.5-0.5,2.5-0.8
		l0.7-0.2c0.2-0.1,0.3-0.1,0.4-0.2c0.3-0.1,0.5-0.2,0.7-0.4c0,0,0,0,0,0c0.5-0.3,1.9-0.7,2.4-0.8c0.9-0.3,0.3-0.3,0.3-0.4
		c1.3-0.4,1.8-0.4,2.1-0.5c0.2,0,0.4-0.1,0.7-0.1c0.3,0,0.6-0.1,1.2,0c0.3,0.1,0.4,0.2,0.3,0.2c-0.1,0-0.3,0-0.4,0
		c-0.2,0-0.3,0-0.3,0.1c0,0,0.1,0.1,0.5,0.2c0.1,0,0.4,0,0.9,0.2c0.4,0.2,1,0.5,1.4,0.9c0.4,0.5,0.8,1.2,1,1.9
		c0.3,0.7,0.4,1.5,0.4,2.1c0,0,0.1-0.1,0.1-0.1c0,0.1,0,0.3,0.1,0.4c0,0.1,0,0.2,0,0.3c0,0.2-0.1,0.5-0.2,0.8c0-0.3,0.1-0.6,0-0.8
		c0,0.3-0.2,1-0.3,1.5c-0.6,1.7-0.7,0.8-1,2.2c0,0-0.1,0.1-0.1,0.1c-0.1,0.5-0.6,1.6-1,2.9l0-0.5l0.4-0.8c-0.4,0.4-0.5,1.4-0.9,2.2
		c-0.3,0.9,0,0.5-0.1,1c-0.1,0.3-0.2,0.8-0.4,1c-0.3,0.7-0.2,0-0.2-0.3c-0.1,0.7-0.2,0.9-0.6,2.4c-0.1,0.1-0.1-0.1-0.1-0.3
		c-0.1,0.3-0.1,0.6-0.1,0.8l-0.3,0.5c-0.3,0.8-0.3,1.3-0.3,1.8c0,0.5,0,1-0.2,2c0-0.6-0.3,1.8-0.5,2.4c0.1-0.7-0.3,0.3-0.4-0.2
		c-0.3,1.7,0.1,0.7,0,2.1l-0.2-0.6c-0.1,1.3,0.1,0.3,0,1.7c0-0.4-0.1,0.6-0.1-0.2c-0.2,1.7-0.2,1.3-0.3,2.8l0.2,0.1
		c0,0.5-0.1,0.7-0.2,0.8c0-0.2,0.1-0.5,0-0.5c-0.3,0.6,0,1-0.2,1.7c0.1-0.2,0.2-0.3,0.2,0.3c-0.1-0.2-0.2,0.7-0.2,1
		c0-0.1,0,0.2,0,0.6l0,0.4l0,0.4c0,0.3,0,0.4,0.1,0.4c-0.1,0.6-0.1,0.6-0.1,0.3L33,66.3c0,0.9-0.1,1.9-0.1,2.1c0,0.1,0,0.2,0,0.2
		c0,0.1,0,0.3,0,0.4l1-2.1c0.3-0.7,0.7-1.6,1-2.4c-0.1,0.3-0.2,0.5-0.3,0.8c1-1.9,0.4-1.5,0.9-2.6c0.1,0.3,0.9-1.9,0.8-1.3
		c0.2-0.6,0.4-1.1,0.5-1.6c0.1-0.1,0.1-0.3,0.2-0.4c0,0.3-0.3,1.1,0,0.5l0.4-1l0.2-0.1c-0.1-0.1,0.3-1,0.2-0.9
		c0.2-0.1,0.4-0.5,0.5-0.4c0.2-0.7,0.7-1.5,0.8-2.1l0.1,0c0-0.7,0.7-2,0.6-2.4l0.2-0.4c0.2-0.8,0.1-0.9,0.1-1.1
		c0.1-0.4,0.2-0.8,0.2-1.2c0,0,0,0,0,0c0,0,0.1-0.1,0.1-0.3c0-0.2,0-0.4,0-0.7c0-0.2-0.1-0.4-0.1-0.5c-0.1-0.3-0.1-0.8-0.1-1.3
		c0-0.5,0.1-1,0.2-1.2c-0.1,0.3,0,0.4,0,0.5c0,0.1,0,0.3-0.1,0.8c0.1-0.3,0.2-0.7,0.3-1.2c0.1-0.5,0.4-1,0.8-1.5l0.1,0.1
		c0.5-0.7,0.8-1.1,1-1.4c0.1-0.2,0.2-0.4,0.3-0.6c0.1-0.1,0.2-0.2,0.3-0.3c0.1,0,0,0.2-0.2,0.6c0.2-0.2,0.5-0.5,0.7-0.7
		c0.1-0.1,0.3-0.3,0.4-0.4c0.1-0.1,0.2-0.2,0.3-0.3c0.2-0.2,0.3-0.5,0.5-0.8c0.1-0.1,0.1-0.3,0.2-0.4c0,0,0-0.1,0-0.1c0,0,0,0,0,0
		c0,0,0,0,0,0c0,0.1,0,0.1,0,0.2c0,0.3-0.1,0.4-0.1,0.4c0,0,0,0-0.1,0c0.1,0.1,0.1,0.3,0.1,0.5l0,0.6l0,0.3c0,0.2,0,0.3,0,0.5
		c0,0.3,0.1,0.6,0.1,0.8c-0.1-0.4,0,0.6,0,1.1c0,0,0.1,0.1,0.1,0.2c0.1,0.4,0.2,1.2,0.3,1.9c0.1,0.7,0.2,1.5,0.3,2l-0.1-0.4
		c0.2,1.2,0.5,2,0.9,2.8c0.1,0.1,0.1,0.3,0.2,0.4c0,0.1,0.1,0.2,0.1,0.4c0.3,0.7,0.6,1.4,0.9,2.2c0,0.2-0.4-0.4,0,0.4
		c0.2,0.2,0.2,0.2,0.4,0.4c0.1,0.3,0.3,0.6,0.4,0.9l-0.1,0l0.4,0.5c0.2,0.5,0.5,1.1,0.8,1.6c0.2,0.5,0.4,0.9,0.6,1.3
		c1.4,2.8,2.9,5.4,4.3,7c0,0,0,0,0,0c0,0,0,0,0,0c0,0-0.1,0-0.2-0.1c0.5,0.6,0.7,0.7,1,0.9c0.2,0.2,0.4,0.4,0.7,0.6c0,0,0,0,0-0.1
		c0,0,0,0,0,0l-0.1-0.3c-0.7-1.7-1.2-3.7-1.6-5.7c0-0.1,0-0.3-0.1-0.4c0-0.1,0-0.1-0.1-0.1c0-0.2-0.1-0.4-0.1-0.7
		c0,0.1,0.1,0.1,0.1,0.1c-0.1-0.6-0.2-1.1-0.4-1.7c-0.8-4.1-1.4-7.9-2.5-9c-4.4-4.3,3.6-9.5-1.9-16.8c0,0,0,0,0-0.1
		c0.2,0.1,0.4,0.3,0.4,0.2c0,0,0-0.1-0.1-0.2c-0.1-0.1-0.2-0.3-0.3-0.6c-0.1-0.2-0.4-0.5-0.4-0.8c-0.1-0.3,0.1-0.6,0.3-0.6
		c0,0,0-0.1-0.1-0.2c0.3-0.3,0.5-0.3,0.7-0.3c0.1,0,0.2,0,0.2,0.1c0,0,0.1,0.1,0.3,0.1c0.2,0,0.5,0,1,0c-0.1,0-0.3,0-0.4,0
		c0.4,0,0.7-0.1,1.2,0c0.1,0.1-0.2,0.1-0.3,0.1c0.6,0,1.2,0,1.8,0c0.1,0.1,0,0.1-0.4,0.2c1.7,0.2-0.3-0.3,1.8,0
		c0.4,0.1-0.1,0.1-0.4,0.1c0.9,0.3,1.6,0.3,2.6,0.3c0,0.1-0.2,0.1-0.2,0.1c0,0,0,0,0,0c0,0,0.1,0,0.1,0c0,0,0.2,0,0.4,0.1
		c-0.3-0.1-0.4-0.2,0.5-0.2c-0.4,0.1,0.8,0.2,1.7,0.1c-0.2,0-0.3-0.1,0-0.1c0.3,0,0.7,0,1.1-0.1c-0.4,0-0.7,0-1.1,0
		c0.5-0.1,0.9-0.1,1.4-0.2c0.5,0,0.9-0.1,1.3-0.3c0,0-0.1,0.1-0.2,0.1c0.9-0.2,1.7-0.7,2.1-1.6l0,0.1C64.1,29.4,64.1,29.2,64.2,29.1
		z"/>
	<path class="st4" d="M44.1,24.1c-0.4-0.1-0.8-0.1-0.7,0c0.7,0.1,1.3,0.2,1.6,0.2C44.9,24.3,44.5,24.2,44.1,24.1z"/>
	<path class="st4" d="M33.5,24.9c0.1,0,0.2-0.1,0.3-0.1L33.5,24.9z"/>
	<path class="st4" d="M40.1,34.3C40.1,34.4,40.1,34.4,40.1,34.3C40.1,34.4,40.1,34.3,40.1,34.3z"/>
	<path class="st4" d="M29.7,30C29.6,30,29.6,30,29.7,30C29.7,30,29.7,30,29.7,30z"/>
	<path class="st4" d="M27.9,27.7L27.9,27.7C28,27.6,27.9,27.6,27.9,27.7L27.9,27.7z"/>
	<path class="st4" d="M35.9,45.8c0.1-0.5,0.5-1.3,0.5-1.6C36.3,44.7,36,45.3,35.9,45.8z"/>
	<path class="st4" d="M47,25.2l-0.3-0.3C46.7,25,46.9,25.1,47,25.2z"/>
	<path class="st4" d="M42.9,21.7c0.2,0,0.3,0.1,0.2,0.2c0,0,0.1,0,0.1,0c0,0-0.1,0.1-0.1,0.1c0.2,0,0.9,1.3,1.2,1
		c-0.1,0.1,0.2,0.2,0.2,0.2c0.1-0.1,0.2-0.1,0.4-0.2c-0.1,0.1-0.1,0.1,0,0.2c0,0,0.1-0.1,0.1-0.1c-0.2,0.5,0.9,0.1,1,0
		c0,0.1,0,0.2,0,0.2c0-0.1,0.1-0.1,0.1-0.1c0,0.3,0.6-0.1,0.7-0.2c0,0,0,0.1,0,0.1c0-0.1,0-0.1,0-0.2c0,0,0.1,0,0.1,0
		c0,0,0.2,0.1,0.2,0.1c0-0.2,0.2-0.2,0.3-0.2c0-0.1,0.2-0.4,0.3-0.2c0-0.1,0.1-0.2,0-0.3c0.2,0,0.4-0.1,0.2-0.2
		c0.3-0.1,0.2-0.2,0.3-0.6c0.1,0,0.1,0,0.2,0.1c-0.1-0.1-0.1-0.1-0.1-0.2c0.2,0,0.2-0.3,0-0.4c0.2,0,0.1,0.1,0.3,0.1
		c0.2-0.2-0.2-0.5,0.1-0.4c-0.4-0.1-0.7-0.2-0.7-0.6c-0.1-0.5-0.3-1-0.7-1.3c0.3,0,0.1,0.1,0.3,0.1c-0.1,0-0.1,0.1,0,0
		c0,0-0.1,0-0.1,0c0.2-0.1,0.4,0.1,0.5,0.1c0,0.1-0.2,0.1-0.3,0.2c0,0,0.1,0.1,0.1,0.1c0-0.1,0.1-0.1,0.1-0.1
		c-0.2,0.2,0.2,0.1,0.2,0.1c0-0.1-0.1-0.1-0.1,0c0,0,0-0.1,0.1-0.1c0,0-0.1,0-0.1,0c0,0,0.1,0,0.1-0.1c0,0-0.1,0-0.1,0
		c0.1-0.1,0-0.1,0.1-0.1c0-0.1-0.1-0.1-0.2-0.1c0,0,0.1,0,0.1,0c-0.2-0.2-0.6-0.5-0.6-0.7c-0.3,0.2-0.2-0.4-0.4-0.1
		c0-0.2-0.5-0.5-0.6-0.3c0-0.2-0.1,0.2-0.1,0.2c0-0.1,0-0.2,0-0.4c0,0,0,0.1,0,0.1c0-0.1,0-0.1,0-0.2c-0.2,0.3-0.4-0.1-0.7,0.2
		c0-0.6-0.1,0.1-0.5-0.1c0,0.1,0,0.2,0,0.3c-0.2-0.1,0-0.4-0.4-0.1c-0.3,0.2-0.2,0.1-0.4,0.4c0-0.1-0.1-0.3-0.1-0.4
		c-0.2,0.1-0.4,0.2-0.3,0.4c-0.1-0.2,0,0-0.2-0.1c0,0.1,0.1,0.1-0.1,0.1c0,0.1,0,0.3-0.1,0.1c0,0,0.1,0.1,0.1,0.1
		c-0.1,0-0.1,0-0.2,0c0,0,0.1,0,0.1,0.1c-0.2,0-0.2,0.2-0.4,0.2c0.1,0,0.1,0.1,0.2,0.1c0,0.1-0.5-0.1-0.2,0.2
		c-0.1,0-0.1,0.1-0.2-0.1c0.2,0.2-0.2,0.3,0,0.5c-0.1,0-0.1,0-0.1-0.1c-0.2,0.1-0.2,1.2-0.3,1.3c0.1,0.1,0.2,0.1,0.2,0.2
		C42.6,21,43.1,21.5,42.9,21.7z M46.6,18.6C46.6,18.5,46.7,18.5,46.6,18.6C46.6,18.6,46.6,18.6,46.6,18.6z M47.2,18.7
		c0,0,0,0.2-0.1,0.1C47.1,18.8,47.1,18.7,47.2,18.7C47.1,18.7,47.1,18.7,47.2,18.7z M47.1,18.4c-0.2,0.3,0.2,0.5-0.4,0.2
		C46.8,18.5,46.9,18.6,47.1,18.4z M46.3,18.4c0.1,0,0.2-0.1,0.4-0.1c-0.2,0.4-0.3,0.1-0.7,0.1C46.1,18.3,46.2,18.3,46.3,18.4z
		 M45.8,18.1c0.1,0.1,0.1-0.1,0.2,0c-0.1,0-0.1,0.2,0,0.2c0,0-0.1,0-0.1,0c0,0,0,0,0,0l0,0c0,0,0,0,0,0
		C45.8,18.3,45.7,18.2,45.8,18.1C45.8,18.1,45.8,18.1,45.8,18.1z M45.8,18.3C45.7,18.4,45.7,18.3,45.8,18.3L45.8,18.3z M45.8,18.3
		C45.7,18.3,45.7,18.3,45.8,18.3L45.8,18.3z M45.4,18.3c0.1-0.1,0.1-0.1,0.2,0c0,0-0.1-0.1,0,0C45.6,18.3,45.4,18.3,45.4,18.3z"/>
	<path class="st4" d="M60.2,29.3C59.7,29.4,59.9,29.4,60.2,29.3C60.3,29.3,60.3,29.3,60.2,29.3z"/>
	<path class="st4" d="M45.1,45.2c0-0.1,0-0.2,0-0.3C45.1,44.9,45,45,45.1,45.2z"/>
	<path class="st4" d="M61.8,31.2c-0.2,0.1-0.5,0.1-0.7,0.2C61.4,31.3,61.6,31.2,61.8,31.2z"/>
	<path class="st4" d="M60,31.7c-0.2,0-0.4,0-0.7,0C59.5,31.7,59.7,31.7,60,31.7z"/>
	<path class="st4" d="M45.2,45.9c0.1,0.3,0.1,0.6,0.2,0.9C45.4,46.6,45.2,45.7,45.2,45.9z"/>
	<path class="st4" d="M38.8,38.1c-0.1,0.2,0,0.2,0,0.2C38.8,38.2,38.8,38.1,38.8,38.1z"/>
	<path class="st4" d="M38.3,58c0.1-0.5,0.2-0.7,0.1-0.7C38.3,57.6,38.2,57.9,38.3,58z"/>
	<path class="st4" d="M33.2,62.3C33.2,62.3,33.2,62.3,33.2,62.3C33.2,62.4,33.2,62.3,33.2,62.3z"/>
	<path class="st4" d="M32.9,68.6c0-0.1,0-0.1,0-0.2C32.9,68.6,32.9,68.6,32.9,68.6z"/>
</g>
<path class="st5" d="M3.7,40.5c0.1,0.2,0.2,0.4,0.3,0.6C3.8,41,3.8,40.8,3.7,40.5z M10,39.3l0-0.1C9.9,39.2,10,39.3,10,39.3z
	 M23.1,28.9l-0.3-0.1C22.9,28.9,23,28.9,23.1,28.9z M5.7,52.1L5.7,52.1C5.7,52,5.7,52,5.7,52.1z M5.3,31.8l-0.2,0
	c-0.2,0.2-0.4,0.4-0.6,0.7C4.8,32.3,5.1,32,5.3,31.8z M3,35.3L3,35.3C3,35.3,3,35.3,3,35.3z M4.4,32.6c-0.5,0.3-0.9,0.9-1.2,1.6
	c-0.3,0.7-0.4,1.4-0.6,1.9l0-0.1c0,1.3,0.3,2.8,0.8,3.9c0.2,0.3,0.5,0.8,0.7,1.3c0.2,0.4,0.4,0.7,0.5,0.7c-0.2-0.4-0.4-0.8-0.6-1.2
	c0.1-0.2-0.3-1.1-0.6-1.8c0.1,0.3,0.2,0.6,0.3,0.9c-0.1-0.2-0.1,0-0.3-0.3c-0.2-0.7-0.4-1.1-0.5-1.5c-0.1-0.4-0.2-0.9-0.1-1.6l0,0.1
	c0-0.4,0-0.7,0-1.1C3,35,3,35.1,3,35.3c0.1-0.5,0.2-0.9,0.4-1.3C3.6,33.5,3.9,33.1,4.4,32.6z M12.5,20.4c0.1,0,0.2,0.1,0.2,0.2
	c0.1,0,0.1-0.9-0.4-0.7c0,0,0,0-0.1,0c0.1,0,0.1,0,0.2,0c-0.1,0.1-0.1,0.1,0,0.2C12.6,19.9,12.6,20.4,12.5,20.4z M11.4,23L11.4,23
	C11.5,23,11.4,23,11.4,23z M83.7,23.4L83.7,23.4C83.7,23.4,83.7,23.4,83.7,23.4z M28.3,29.6c0.1,0.2,0,0.4,0,0.4
	c-0.1,0.2-0.1,0.2-0.2,0.2c-0.1,0.1-0.1,0.1-0.1,0.2c0,0,0,0.1,0,0.1c-0.4,0.2-0.9,0.5-1.4,0.7c-0.5,0.2-0.9,0.4-1.1,0.4
	c0.5-0.2,0.4-0.2,0.5-0.3c-0.7,0.2-0.9,0.2-1.4,0.4c-0.7,0.1,0.1-0.2-0.2-0.2c-1.1,0.1,0.1,0.2-0.8,0.3c-1.6,0.1-3.2,0-4.7,0
	l-2.2-0.1c-0.7,0-1.3,0-1.8,0c0.1-0.1-0.1-0.1,0-0.1c-0.3,0.1-0.5,0.2-0.5,0.3c0,0.1,0,0.2-0.1,0.4c-0.1-0.1-0.1-0.3-0.1-0.2
	c0,0.1,0.1,0.2,0.1,0.4c0,0.1,0.1,0.2,0.1,0.3c0,0.1,0.1,0.2,0.2,0.3c0.2,0.4,0.5,0.9,0.7,1l0,0.1c0.6,0.9,1.3,2.1,1.4,2.5
	c-0.1-0.1,0-0.1-0.1,0c0.5,0.6,0.7,1.2,1.2,2.2c-0.1,0.4,1,2.1,0.8,2.5l0.6,1.5c0.2,0.4,0.3,0.8,0.4,1.2c0.3,0.7,0.5,1.4,0.6,2.3
	c-0.2-0.4-0.1,0.3,0,0.7l0-0.1c0.2,0.9,0.3,2.5,0.6,3.8c0,0.3-0.1,0-0.1,0.4l0.2,0.3c0,0.2,0,0.4,0,0.6c0.2,0.7,0.3,1.2,0.4,2.1
	c-0.1,0.1-0.2,0.1-0.1,0.6c0.2,0.8,0.4,2.8,0.4,4.3l-0.1-0.2c0,0.1,0,0.2,0,0.4l0,0.2l0,0.3l0.1,1.7c0-0.3-0.1-0.2-0.2-0.3
	c0.1,0.6,0.2,1.3,0.2,2c0,0.7,0.1,1.3,0.2,1.9l0,1.8L21.7,66l0.1,0.3c-0.4-1-0.8-1.8-1.2-2.7l-1.2-2.5l-0.6-1.3l-0.3-0.7
	c-0.2-0.5-0.4-1-0.5-1.4c-0.3-1.2-1.3-2.7-1.7-4.1c-0.1-0.3,0.3,0.5,0.2,0.1c-0.6-0.7-0.9-2.5-1.6-3.6l0.3,0.4l-0.2-0.8
	c-0.1-0.1-0.1,0.1-0.2-0.3c-0.2-0.8-0.2-0.9-0.4-1.5c0.1,0,0.3,0.3,0-0.5l-0.1,0.3c-0.1-0.5-0.3-1-0.4-1.5c-0.1-0.5-0.2-1,0-1.6
	c0,0.2,0,0.3,0,0.3c0,0,0.1-0.1,0.1-0.2c0-0.1,0-0.1,0-0.2l0.1-0.2c0.1-0.2,0.1-0.5,0.1-0.7c0,0-0.1,0.1-0.1,0.1
	c0-0.3,0-0.4,0.1-0.4c0-0.1,0.1-0.1,0-0.4l-0.1,0c0.1,0,0-0.3,0-0.4c-0.2-0.3-0.4-0.5-0.6-0.7l0.1,0.1c-0.2-0.2-0.3-0.6-0.8-0.8
	c0.1,0.1,0.2,0.2,0.1,0.1c-0.4-0.4-0.6-0.4-0.6-0.6c-0.2-0.1-0.5-0.2-0.7-0.4c-0.1-0.1-0.3-0.2-0.5-0.3l-0.2-0.2l-0.2-0.2
	c-0.1,0,0,0-0.1,0l0,0c0,0,0,0,0-0.1c0,0,0,0,0-0.1c0,0,0,0,0,0c0,0,0,0,0,0L10,39.3c0,0,0,0,0,0c0,0,0,0,0,0c0,0,0,0,0,0L9.9,39
	c0-0.2-0.1-0.4-0.1-0.4c0,0,0-0.1,0-0.1c0,0,0,0,0,0c0,0,0,0.1,0,0.1c0,0.1,0,0.2,0,0.3c0,0.1,0,0.2,0.1,0.3l0.2,0.5
	c0,0,0,0.1-0.1,0.2l0,0.8c0,0.6-0.1,1.2-0.1,1.7c-0.1,1.1-0.3,2.2-0.5,2.8c0.1-0.6-0.1-0.3-0.2,0.2c-0.1,0.5,0.2-0.1,0.1,0.4
	l-0.5,1.2c-0.2,0.4-0.4,0.9-0.5,1.3c-0.4,0.8-0.7,1.6-1,2.2c0.1-0.3,0.2-0.7,0.1-0.6C7,50.2,7,50.8,6.6,51.4c0-0.1,0-0.1,0-0.1
	c-0.2,1.2-1.4,2.3-1.7,4.1l-0.2,0L5,55c-0.4,0.4-0.2,0-0.5,0.3c0,0.1-0.1,0.4-0.1,0.7c-0.1,0.4-0.2,0.7,0,0.3c0-0.1,0.1-0.3,0.1-0.4
	c0,0,0,0.1,0,0.1c0,0.1,0,0.1-0.1,0.2c0,0.2-0.1,0.3-0.2,0.5c-0.1,0.4-0.3,0.8-0.5,1.1c-0.4,0.8-0.7,1.4-0.9,2.2
	c-0.4,0.8-0.8,1.6-1.2,2.4l-0.1,0.3l-0.1,0.1c0,0-0.1,0.1,0,0.1c0,0,0,0-0.1,0c0,0,0,0-0.1,0l-0.1,0.1c-0.1,0.1-0.1,0.2-0.3,0.4
	c0.3-1.3,0.4-2.3,0.6-3.1c0,0.1,0,0.4,0,0.1c0-0.2,0.1-0.9,0.2-1.5c0.1-0.7,0.1-1.3,0.2-1.8l0.1-1.5l0-0.1l0-0.1l0-0.2
	C2,55.1,2,55,2,55c0-0.2-0.1-0.6-0.2-0.9l0.1,0.3c0-1.5,0-3,0.1-4.5c0-0.7,0.1-1.5,0.2-2.3c0.1-0.4,0.1-0.8,0.2-1.1
	c0.1-0.4,0.3-0.8,0.6-1.2c0.3-0.2,0.1-0.1-0.1,0.1c-0.2,0.2-0.2,0.4,0,0.2c0-0.1,0.1-0.2,0.2-0.3c0,0,0.1-0.1,0.1-0.1l0.1-0.1
	l0.3-0.3c0.2-0.2,0.3-0.4,0.5-0.6c0,0.2,0.1,0.1,0.1-0.1c0.1-0.1,0.1-0.3,0.2-0.3c0.1-0.3,0.1-0.6,0-0.9c0-0.1,0.1-0.1,0.1-0.2
	c0-0.2-0.1-0.4-0.2-0.5c0-0.2,0.1,0,0-0.4c-0.2-0.2-0.3-0.5-0.4-0.8c0.2,0.3,0.4,0.6,0.5,0.9c0.1,0.3,0.2,0.6,0.1,1
	c0.1,0.3,0.1-0.1,0.1-0.4c0.1,0.3,0.1,0.6,0,0.8c0,0.2-0.1,0.5-0.3,1c0-0.1,0-0.3,0-0.4c-0.1,0.3-0.2,0.5-0.2,0.5c0,0,0,0,0-0.1
	c0-0.1,0.1-0.3-0.1-0.1c-0.1,0.4-0.4,0.7-0.7,1.1c0,0-0.1,0-0.1,0.1c-0.3,0.3-0.5,0.7-0.6,1.2c-0.1,0.4-0.1,0.8-0.1,1l-0.1-0.1
	c0,0.3,0,0.4,0,0.6l-0.1,0c0,0.3,0,0.7,0,1l0-0.1c0,0.4-0.1,0.8-0.1,1.3l0-0.2c0,0.7,0,1.2,0.1,1.7c0-2.9,0.2-5.4,1.1-6.2
	C8,42-1,37.5,5.5,32.1c0,0,0,0,0,0c0,0,0-0.1,0-0.2c0-0.2-0.1-0.3-0.2-0.4c-0.3-0.3-0.9-0.7-0.9-0.7c0.1,0,0.2,0.1,0.1,0
	c-0.4-0.4-0.9-0.9-1.3-1.4c-0.2-0.3-0.4-0.5-0.6-0.8c-0.2-0.4-0.3-0.7-0.3-1.1c0.1-0.3,0.1,0,0.2,0.3c0.1,0.3,0.2,0.6,0.2,0.2
	c-0.2-0.4-0.2-0.8-0.2-1.2c0-0.4,0.1-0.8,0.2-1.3c0.1-0.2,0.3-0.5,0.5-0.8c0.2-0.2,0.4-0.5,0.6-0.7c-0.1,0.1-0.1,0.1,0,0.1
	c0.2-0.2,0.4-0.3,0.5-0.5c0.2-0.1,0.3-0.3,0.6-0.5c0.1,0,0.2,0.1,0.3,0.1c1.2-0.4,2.3-0.3,3.1,0l0,0c0.8,0.3,1.5,0.7,2.2,1
	c0.3,0.3,0.2,0.2,0.6,0.6c0.1-0.1,0.4,0.1,0.7,0.4c0.3,0.2,0.7,0.5,1,0.5c0.2,0.2,0.5,0.4,0.7,0.6c0.3,0,1.2,0.4,1.6,0.6
	c-0.3-0.1,0.4,0.3,0.9,0.5c-0.2-0.1,1.2,0.4,1.8,0.5l-0.1,0.1c0.7,0.2,2,0.4,2.2,0.6c0.6,0.1,1,0.1,1.3,0.1c0.3,0.1,0.6,0.1,0.9,0.2
	l-0.2,0C22,29,22.9,28.9,23.4,29l-0.3-0.1c0.2,0,0.4,0,0.6-0.1L23.5,29c0.3,0,0.5,0,0.7-0.1C24.1,29,24.7,29,25.2,29
	c-0.3,0,0.1,0,0.1,0c0.1,0,0.4,0,1,0.1c0.3,0,0.6,0.1,0.9,0.1l0.5,0c0.1,0,0.2,0,0.3,0c0.1,0,0.1,0,0.3,0.1c0,0,0.1,0.1,0.1,0.1
	C28.3,29.5,28.3,29.5,28.3,29.6z M2.3,52.8l0.1,0.3c0,0.1,0,0.1-0.1,0.2c0,0.5,0.1,0.3,0.2,0.3c0-0.2,0-0.4,0-0.5
	C2.4,52.9,2.3,52.6,2.3,52.8z M2,56.2c0.1,0.1,0.2,0.8,0.2,1.5c0,0.4,0,0.7,0,0.9c0,0.1,0,0.2,0.1,0.1c0,0,0,0,0,0
	c0.1-1.4,0.2-3,0.2-4.7c0,0.2-0.1,0.3-0.1,0.5c0,0.2-0.1,0.4-0.1,0.6c0,0.1,0,0.2,0,0.4c0,0.2,0,0.4,0,0.6c-0.1-0.6-0.1-0.6-0.1-0.5
	C2.1,55.8,2.1,56.1,2,56.2z M2.2,59.2c0,0.1,0,0.2,0,0.3c0,0.1,0,0.1,0,0.1c0-0.2,0.1-0.4,0.1-0.6L2.2,59.2z M4.9,53.9
	c-0.8,2-1.7,3.8-2.6,5.9c0,0.1-0.1,0.2-0.1,0.3l-0.3,1.2c0.3-0.7,0.6-1.4,0.9-2.2C3,58.3,3.3,57.6,3.5,57
	C4.2,55.7,4.5,54.8,4.9,53.9z M5.8,51.8l0-0.2c-0.2,0.4-0.4,0.9-0.6,1.3c0.1-0.2,0.2-0.5,0.4-0.7c0,0.2,0,0.5-0.1,0.7
	C6.1,52,5.8,52,6.3,51.2C6.5,50.5,6.1,51.5,5.8,51.8z M6.4,50.5C6.3,50.7,6.1,51,6,51.2l0,0C6.3,50.8,6.3,50.6,6.4,50.5z M7.6,47.9
	c-0.3,0.7-0.6,1.3-0.9,2c0,0,0,0,0-0.1C7.1,49,7.4,48.4,7.6,47.9z M12.9,20.9c0,0,0.1,0,0.1,0C12.9,20.9,12.9,20.9,12.9,20.9z
	 M7.9,21.1c-0.4,0,0.1,0.5-0.1,0.7c0.2,0,0.3,0.1,0.2,0.2c0,0,0.1,0,0.1,0C8.1,22,8.1,22,8,22c0.2,0,0.2,0.2,0.3,0.2
	c0,0,0.6,0.8,0.8,0.7c-0.1,0.1,0.2,0.2,0.2,0.2C9.4,23.1,9.5,23,9.6,23c-0.1,0.1-0.1,0.1,0,0.2c0,0,0.1-0.1,0.1-0.1
	c-0.2,0.5,0.8,0.1,0.9,0c0,0.1,0,0.2,0,0.2c0-0.1,0-0.1,0.1-0.1c0,0.3,0.6-0.1,0.6-0.2c0,0,0,0.1,0,0.1c0-0.1,0-0.1,0-0.2
	c0,0,0.1,0,0.1,0c0,0,0.2,0.1,0.2,0.1c0-0.2,0.2-0.2,0.3-0.2c0-0.1,0.2-0.4,0.2-0.2c0-0.1,0-0.2,0-0.2c0.2,0.1,0.3-0.1,0.2-0.2
	c0.3-0.1,0.2-0.2,0.2-0.5c0.1,0,0.1,0,0.2,0.1c-0.1,0-0.1-0.1-0.1-0.2c0.2,0,0.1-0.2,0-0.4c0.2,0,0.1,0.1,0.3,0.1
	c0.2-0.1-0.1-0.3,0-0.4c-0.8-0.1-0.7-1.1-1.2-1.7c0.3-0.1,0,0.1,0.3,0.1c-0.1,0.1-0.1,0.1,0,0c0,0-0.1,0-0.1,0.1
	c0.2-0.1,0.3,0,0.5,0.1c-0.1,0.1-0.2,0.1-0.3,0.2c0,0,0.1,0.1,0.1,0.1c0-0.1,0.1-0.1,0.1-0.1c-0.2,0.2,0.2,0.1,0.2,0.1
	c0-0.1-0.1-0.1-0.1,0c0,0,0.1-0.1,0.1-0.1c0,0-0.1,0-0.1,0c0,0,0.1,0,0.1-0.1c0,0-0.1,0-0.1,0c0.1-0.1,0-0.1,0.1-0.1
	c0-0.1-0.1-0.1-0.2-0.1c0,0,0.1,0,0.1,0c-0.2-0.1-0.6-0.5-0.5-0.6c-0.3,0.2-0.1-0.4-0.4-0.1c0-0.2-0.5-0.5-0.6-0.2
	c0-0.2-0.1,0.2-0.1,0.2c0-0.1,0-0.2,0-0.4c0,0,0,0.1,0,0.1c0-0.1,0-0.1,0-0.2c-0.2,0.3-0.4-0.1-0.6,0.2c0-0.6-0.1,0.1-0.4-0.1
	c0,0.1,0,0.2,0,0.3c-0.1-0.1,0-0.4-0.3-0.2c-0.3,0.2-0.2,0.1-0.4,0.4c0-0.1-0.1-0.3-0.1-0.4c-0.2,0.1-0.3,0.2-0.3,0.4
	c-0.1-0.2,0,0-0.2-0.1c0,0,0.1,0.1,0,0.1c0,0-0.1,0-0.1,0c0,0.1,0,0.3-0.1,0.1c0,0,0.1,0.1,0.1,0.1c-0.1,0-0.1,0-0.2,0
	c0,0,0.1,0,0.1,0.1c-0.2,0-0.2,0.2-0.3,0.2c0.1,0,0.1,0.1,0.2,0.1c0,0.1-0.5-0.1-0.2,0.1c0,0-0.1,0-0.2-0.1c0.2,0.2-0.1,0.3,0.1,0.4
	c-0.1,0-0.1,0-0.2-0.1c0,0-0.2,0.7-0.2,0.8C7.7,20.7,7.6,21,7.9,21.1z M84.6,20.3C84.6,20.3,84.6,20.3,84.6,20.3c0,0,0.1,0,0.1,0.1
	c-0.1,0.1-0.1,0.1,0,0.2c0.2-0.2,0.2,0.3,0.1,0.3c0.1,0,0.2,0.1,0.2,0.2C85,21,85.1,20.2,84.6,20.3z M84.9,21.2
	C85,21.1,85,21.1,84.9,21.2L84.9,21.2z M75.2,31.6C75.1,31.6,75.1,31.6,75.2,31.6C75.1,31.6,75.2,31.6,75.2,31.6z M71.5,58.4
	c0,0.1,0,0.1,0,0.2C71.5,58.4,71.6,58.4,71.5,58.4z M62.7,29.3c-0.5,0.2-0.8,0.4-0.5,0.3c0.7-0.3,1.4-0.6,1.7-0.8
	C63.7,28.9,63.1,29.1,62.7,29.3z M70,46.1c0-0.1,0-0.1,0-0.1C69.9,46.2,69.9,46.2,70,46.1z M70,29.8L70,29.8
	C70,29.9,70,29.9,70,29.8L70,29.8z M69,51.3c0,0.4-0.1,0.9-0.1,1.4C68.9,52.3,69.1,51.6,69,51.3z M66.9,27.9c-0.2,0-0.3,0-0.5,0
	C66.4,28,66.6,27.9,66.9,27.9z M88.5,28c0,0-0.1,0,0-0.1c0-0.1,0.1-0.4-0.1-0.9c-0.1-0.4,0.2,0.1,0.2,0.4c0-0.5-0.3-0.9-0.5-1.2
	c-0.3-0.3-0.6-0.5-1-0.7c0.1-0.1,0.5,0.2,0-0.3c0.1,0.1,0.1,0.3-0.4,0c0.3,0-0.3-0.3-0.8-0.5c0.1,0.1,0,0.1-0.2,0.1
	c-0.1,0-0.2-0.1-0.3-0.1l-0.1-0.1c0,0,0,0-0.1,0c0,0-0.1,0-0.1-0.1c-0.1,0-0.1,0-0.2,0l0.2,0.1c0.1,0,0.1,0.1,0.1,0.1
	c0,0,0.1,0,0.1,0.1l0.2,0.1c-0.1,0-0.2,0-0.2-0.1c0,0-0.1,0-0.1,0c0,0-0.1,0-0.1-0.1c-0.3-0.1-0.6-0.1-0.8-0.2
	c-0.2-0.1-0.5-0.1-0.8-0.1c0.1,0,0.2,0,0.3,0c-0.7-0.1-1.4-0.2-2.3,0l0.1,0c-1.7,0.2,0.5,0.2-1.4,0.4c-0.6,0,0.3-0.5-1.2-0.2
	c0.7,0-0.9,0.3-1.7,0.6c0.3-0.2,0.5-0.3,0.8-0.4c-0.2,0-0.4,0.1-0.6,0.1c-0.2,0.1-0.4,0.1-0.5,0.1l0.1,0c0.1,0.2-1.1,0.2-1.6,0.5
	c0.7-0.5,0.7-0.4,0.8-0.8C75.6,25,75,25.3,74,25.6l0.8-0.5c-1.4,0.3-2.9,1.1-4,1.7c0.2-0.3-0.2-0.2,0.2-0.5l-1.3,0.5l0.3-0.3
	c-0.5,0.4-1.1,0.4-0.9,0.6c0.1-0.1,0.1-0.1,0.4-0.2c0,0.1-0.2,0.3-0.9,0.5c-0.5,0.1,0.2-0.2,0.1-0.2c-0.4,0.2-0.5,0.1-0.9,0.3l0.4,0
	c-0.1,0.1-0.3,0.2-0.5,0.3c-0.2,0.1-0.5,0.2-0.7,0.3c0.6-0.3,0.4-0.3,0-0.2l0.1,0c-0.2,0.1-0.5,0.2-0.7,0.3
	c-0.2,0.1-0.4,0.2-0.6,0.2c0-0.1,0-0.1,0-0.2c-0.2,0.1-0.3,0.2-0.4,0.3c-0.3,0.1-0.7,0.2-0.3,0C63.6,29,64,29,64.2,29
	c0.1,0,0.2,0,0.1,0.1c-0.1,0.1-0.4,0.2-1.1,0.5c-0.2,0-0.2-0.1,0.6-0.4c-0.3,0-0.7,0.1-1.5,0.4c0,0-0.1,0-0.1,0
	c-0.5,0.2-0.9,0.4-1.4,0.7c-0.1,0.3-0.1,0.5-0.1,0.6c-0.2,0.1-0.1,0-0.2,0c-0.1,0.1-0.1,0.1-0.1,0.2c0.1,0.1,0.1,0.1,0.2,0.1
	c0.1,0,0.3,0,0.3,0.2c0,0,0-0.1,0-0.1l0.5,0c0.1,0,0.2,0,0.3,0l0.3,0c0.2,0,0.3,0,0.6,0c0.2,0,0.5,0,0.7,0l-0.6,0.2
	c0.9-0.2,1.7-0.4,2.5-0.5c0.8-0.1,1.4-0.2,1.8-0.3c-0.3,0-0.2,0-0.2,0c0,0-0.1,0-0.4,0c0.6-0.1,1.1-0.2,1.6-0.3l1.1-0.2L69,30
	c0.3-0.1,0.7-0.1,1-0.2c-0.1,0,0.2,0,0.6-0.1c0.4,0,0.8-0.1,0.8-0.2c0.6,0.1-0.2,0.2-0.4,0.3c0.5-0.1,0.6,0,1.1-0.1
	c0.2,0.1,0.4,0.1,0.5,0.2c0.4,0,0.9,0,1.2,0.2c-0.1,0,0,0-0.1,0c0.3,0.1,0.6,0.3,0.8,0.6c0.3,0.3,0.4,0.6,0.7,0.9c0,0,0,0,0,0
	c0.1,0.2,0.3,0.5,0.3,0.9c0,0.2,0,0.4,0,0.5c0,0.1-0.1,0.3-0.1,0.3c-0.2,0.7,0.1,0.3,0.1,0.4c-0.4,1-0.6,1.3-0.8,1.6
	c-0.1,0.3-0.2,0.6-0.5,1.5c-0.7,0.9,0.3-1.3-0.5-0.1c0,0.2-0.3,1.1-0.8,2.2c-0.5,0.9-1.2,2.4-1.7,3.3l0.2,0
	c-0.1,0.5-0.3,0.9-0.4,1.4c0-0.3,0.1-0.6,0.1-0.9c0,0.2-0.2,1-0.3,1.4c-0.2,0.7-0.3,0.9-0.4,1.1c-0.1,0.1-0.2,0.3-0.2,0.9
	c0,0-0.1,0.1-0.1,0.1c0,0.4-0.2,1.3-0.4,2.5l-0.1-0.4l0.2-0.7c-0.3,0.4-0.2,1.2-0.3,1.9c-0.1,0.7,0.2,0.4,0.2,0.8
	c0,0.3-0.1,0.7-0.1,0.9c-0.1,0.6-0.2,0-0.3-0.2c0.1,0.6,0.1,0.8,0,2c-0.1,0.1-0.1,0-0.1-0.2c0,0.3,0,0.5,0.1,0.6l-0.2,0.4
	c-0.3,1.4,0.2,1.4,0,3.1c-0.1-0.5-0.1,1.5-0.3,2c0-0.6-0.3,0.3-0.4-0.1c0,0.3-0.1,0.5,0,0.7c0,0.2,0,0.3,0.1,0.4
	c0.1,0.2,0.1,0.2,0.1,1c-0.1-0.1-0.1-0.3-0.2-0.5c0,0.9,0,0.9,0.1,1c0,0.1,0,0.2,0,0.9c0-0.1-0.1,0.1-0.1,0.2c0,0.2,0,0.3-0.1-0.2
	L67.9,66l0.3-0.9v0.1c0,0,0,0.1,0,0.1c0.2-0.3,0.2-0.2,0.2-0.2c-0.1,0.3-0.3,0.6-0.3,0.7c0.1,0.1,0.2-0.3,0.4-0.7
	c0.2-0.4,0.3-0.8,0.5-0.9c-0.1,0-0.1-0.2,0.2-0.9c-0.1,0.3,0,0.2,0.2-0.1c0.1-0.2,0.2-0.4,0.3-0.5c-0.1,0,0.8-1.8,0.7-2
	c0.2-0.3,0.2-0.3,0.2-0.1c-0.1,0.2-0.2,0.5-0.2,0.6c0.1-0.2,0.2-0.5,0.3-0.9l0.2-0.4l0.2-0.3c0.2-0.5,0.4-0.9,0.5-1.2c0,0,0,0,0,0
	c0.2-0.6,0.6-1.6,0.9-2.8L72.4,56c0.6-1.1,0.1-0.8,0.5-1.8c0.1,0.3,0.6-1.6,0.7-1.1c0.1-0.5,0.2-1,0.3-1.4c0-0.1,0.1-0.2,0.1-0.4
	c0,0.3-0.2,1,0.1,0.4l0.2-0.9l0.1-0.1c-0.1-0.1,0.2-0.8,0.1-0.8c0.2-0.1,0.4-0.4,0.4-0.3c0.2-0.5,0.5-1.3,0.5-1.8l0.1,0
	c0-0.3,0.1-0.7,0.1-1.1c0.1-0.4,0.1-0.8-0.1-0.9c0-0.1,0.1-0.3,0.1-0.4c-0.1-0.4-0.2-0.5-0.3-0.6c0-0.1-0.1-0.1-0.1-0.1
	c0-0.3,0-0.7,0.1-1c0,0,0,0,0,0c0,0,0.1-0.1,0.1-0.2c0.1-0.3,0.4-0.7,0.5-0.7c0.1-0.2,0.3-0.5,0.6-0.9c0.3-0.3,0.5-0.6,0.6-0.8
	c-0.3,0.5,0,0.3-0.6,1c0.5-0.2,0.9-1.1,1.8-1.7l0.1,0.1c0.5-0.5,0.8-0.8,0.9-1.1c-0.2,1.1-0.5,2.5-0.4,3.2c-0.1-0.3-0.1,0.5-0.2,0.9
	c0,0,0.1,0.1,0.1,0.1c0,0.4,0.1,1,0.1,1.6c0.1,0.6,0.2,1.2,0.2,1.6c0-0.1-0.1-0.2-0.1-0.3c0.2,1,0.6,1.6,1,2.2
	c0.1,0.1,0.1,0.2,0.2,0.3c0.3,0.7,0.6,1.4,1,2c0,0.2-0.3-0.3,0,0.4c0.1,0.2,0.2,0.2,0.3,0.3c0.1,0.2,0.2,0.5,0.3,0.7l-0.1,0l0.3,0.4
	c0.2,0.5,0.4,0.9,0.6,1.3c0.2,0.4,0.3,0.7,0.5,1c1,2.3,2,4.3,3,6c0,0,0,0.1,0,0.1c0,0,0,0.1-0.1,0c0.1,0.1,0.1,0.2,0.2,0.3l0,0.1
	c0,0,0,0.1,0,0l0-0.2L86,60.5c0-0.2,0-0.4,0-0.6c0,0,0,0,0-0.1c0-0.1,0-0.2-0.1-0.3c0-1.5-0.1-3.1-0.2-4.8c0-0.1,0-0.2,0-0.4
	c0-0.1,0-0.1,0-0.1c0-0.2,0-0.4,0-0.6c0,0.1,0,0.1,0.1,0.1c0-0.5-0.1-0.9-0.2-1.4c-0.2-2.8-0.7-5.2-1.6-5.9
	c-4.4-3.7,5.8-8.2,0.2-14.4c0,0,0,0,0-0.1c0.2,0.1,0.3,0.2,0.4,0.1c0,0,0-0.1-0.1-0.2c-0.1-0.1-0.2-0.3-0.2-0.4c0,0,0,0,0,0
	c0.1-0.1,0.2-0.1,0.3-0.2c0.3-0.2,0.6-0.3,0.7-0.3l0-0.2c0.6-0.4,0.7-0.4,0.8-0.4c0.1,0,0.3,0.1,1-0.6l-0.3,0.2
	c0.3-0.2,0.4-0.5,0.7-0.7c0.1-0.1-0.1,0.1-0.1,0.3c0.2-0.2,0.3-0.4,0.5-0.6c0.2-0.2,0.3-0.5,0.4-0.8c0.1,0,0.1,0.1,0,0.4
	C88.5,28.4,88.5,28.1,88.5,28C88.5,28,88.5,28,88.5,28z M83.8,24.3l0.6,0.1C84.2,24.3,84,24.3,83.8,24.3z M85.9,24.7
	c0-0.1-0.1-0.1-0.3-0.2C85.7,24.6,85.8,24.6,85.9,24.7z M80.1,22.2c0.2,0,0.3,0.1,0.2,0.2c0,0,0.1,0,0.1,0c0,0-0.1,0.1-0.1,0.1
	c0.2,0,0.8,1.1,1.1,0.9c-0.1,0.1,0.2,0.2,0.2,0.2c0.1-0.1,0.2-0.1,0.3-0.2c-0.1,0.1-0.1,0.1,0,0.2c0,0,0.1-0.1,0.1-0.1
	c-0.2,0.5,0.8,0.1,0.9,0c0,0.1,0,0.2,0,0.2c0-0.1,0-0.1,0.1-0.1c0,0.3,0.6-0.1,0.6-0.2c0,0,0,0.1,0,0.1c0-0.1,0-0.1,0-0.2
	c0,0,0.1,0,0.1,0c0,0,0.2,0.1,0.2,0.1c0-0.2,0.2-0.2,0.3-0.2c0-0.1,0.2-0.4,0.2-0.2c0-0.1,0-0.2,0-0.2c0.2,0.1,0.3-0.1,0.2-0.2
	c0.3-0.1,0.2-0.2,0.2-0.5c0.1,0,0.1,0,0.2,0.1C85,22.1,85,22.1,85,22c0.2,0,0.1-0.2,0-0.4c0.2,0,0.1,0.1,0.3,0.1
	c0.2-0.1-0.1-0.3,0-0.4c-0.8-0.1-0.7-1.1-1.2-1.7c0.3-0.1,0,0.1,0.3,0.1c-0.1,0.1-0.1,0.1,0,0c0,0-0.1,0-0.1,0.1
	c0.2-0.1,0.3,0,0.5,0.1c-0.1,0.1-0.2,0.1-0.3,0.2c0,0,0.1,0.1,0.1,0.1c0-0.1,0.1-0.1,0.1-0.1c-0.2,0.2,0.2,0.1,0.2,0.1
	c0-0.1-0.1-0.1-0.1,0c0,0,0.1-0.1,0.1-0.1c0,0-0.1,0-0.1,0c0,0,0.1,0,0.1-0.1c0,0-0.1,0-0.1,0c0.1-0.1,0-0.1,0.1-0.1
	c0-0.1-0.1-0.1-0.2-0.1c0,0,0.1,0,0.1,0c-0.2-0.1-0.5-0.5-0.5-0.6c-0.3,0.2-0.1-0.4-0.4-0.1c0-0.2-0.5-0.5-0.6-0.2
	c0-0.2-0.1,0.2-0.1,0.2c0-0.1,0-0.2,0-0.4c0,0,0,0.1,0,0.1c0-0.1,0-0.1,0-0.2c-0.2,0.3-0.4-0.1-0.6,0.2c0-0.6-0.1,0.1-0.4-0.1
	c0,0.1,0,0.2,0,0.3c-0.1-0.1,0-0.4-0.3-0.2c-0.3,0.2-0.2,0.1-0.3,0.4c0-0.1-0.1-0.3-0.1-0.4c-0.2,0.1-0.3,0.2-0.3,0.4
	c-0.1-0.2,0,0-0.2-0.1c0,0,0.1,0.1,0,0.1c0,0-0.1,0-0.1,0c0,0.1,0,0.3-0.1,0.1c0,0,0.1,0.1,0.1,0.1c-0.1,0-0.1,0-0.2,0
	c0,0,0.1,0,0.1,0.1c-0.2,0-0.2,0.2-0.3,0.2c0.1,0,0.1,0.1,0.2,0.1c0,0.1-0.5-0.1-0.2,0.1c0,0-0.1,0-0.2-0.1c0.2,0.2-0.1,0.3,0.1,0.4
	c-0.1,0-0.1,0-0.2-0.1C80,20.2,80,21.2,80,21.3c0.1,0.1,0.2,0.1,0.2,0.2C79.8,21.5,80.4,22,80.1,22.2z M85.2,21.4
	C85.2,21.4,85.2,21.4,85.2,21.4C85.2,21.4,85.2,21.4,85.2,21.4z"/>
</svg>
